<svg width="24" height="24" viewBox="0 0 24 24" fill="none" xmlns="http://www.w3.org/2000/svg">
<path fill-rule="evenodd" clip-rule="evenodd" d="M12 23C18.0751 23 23 18.0751 23 12C23 5.92487 18.0751 1 12 1C5.92487 1 1 5.92487 1 12C1 18.0751 5.92487 23 12 23ZM8.79245 14.9217C8.13685 14.9217 7.60005 14.7677 7.18205 14.4597C6.76845 14.1473 6.56165 13.6985 6.56165 13.1221C6.56165 12.9989 6.57485 12.8537 6.60125 12.6777C6.67165 12.2817 6.77285 11.8065 6.90485 11.2477C7.27885 9.73409 8.24685 8.97729 9.80445 8.97729C10.2268 8.97729 10.6096 9.04769 10.944 9.19289C11.2784 9.32929 11.5424 9.54049 11.736 9.82209C11.9296 10.0993 12.0264 10.4293 12.0264 10.8121C12.0264 10.9265 12.0132 11.0717 11.9868 11.2477C11.9032 11.7361 11.8064 12.2157 11.6876 12.6777C11.494 13.4301 11.164 13.9977 10.6888 14.3717C10.218 14.7413 9.58445 14.9217 8.79245 14.9217ZM8.91125 13.7337C9.21925 13.7337 9.47885 13.6413 9.69445 13.4609C9.91445 13.2805 10.0728 13.0033 10.1652 12.6249C10.2928 12.1057 10.3896 11.6569 10.4556 11.2697C10.4776 11.1553 10.4908 11.0365 10.4908 10.9133C10.4908 10.4117 10.2312 10.1609 9.70765 10.1609C9.39964 10.1609 9.13564 10.2533 8.91565 10.4337C8.70005 10.6141 8.54605 10.8913 8.45365 11.2697C8.35245 11.6393 8.25565 12.0881 8.15445 12.6249C8.13245 12.7349 8.11925 12.8493 8.11925 12.9725C8.11485 13.4829 8.38325 13.7337 8.91125 13.7337ZM12.2683 14.7852C12.3035 14.8248 12.3475 14.8424 12.4091 14.8424H13.5311C13.5883 14.8424 13.6411 14.8248 13.6895 14.7852C13.7423 14.7456 13.7687 14.6972 13.7819 14.6356L14.1603 12.8272H15.2735C15.9951 12.8272 16.5627 12.6776 16.9763 12.374C17.3987 12.0704 17.6759 11.604 17.8123 10.9704C17.8431 10.8208 17.8607 10.6756 17.8607 10.5392C17.8607 10.0596 17.6715 9.69439 17.2975 9.43919C16.9279 9.18839 16.4395 9.06079 15.8279 9.06079H13.6323C13.5751 9.06079 13.5223 9.07839 13.4739 9.11799C13.4211 9.15759 13.3903 9.20599 13.3815 9.26759L12.2419 14.6356C12.2331 14.6928 12.2419 14.7412 12.2683 14.7852ZM15.9335 11.4984C15.7619 11.626 15.5639 11.6876 15.3307 11.6876H14.3847L14.6971 10.2092H15.6871C15.9115 10.2092 16.0743 10.2532 16.1667 10.3412C16.2591 10.4248 16.3075 10.548 16.3075 10.7064C16.3075 10.7768 16.2987 10.8604 16.2811 10.9528C16.2239 11.1904 16.1095 11.3708 15.9335 11.4984Z" fill="white"/>
</svg>
