<svg width="24" height="24" viewBox="0 0 24 24" fill="none" xmlns="http://www.w3.org/2000/svg">
<path fill-rule="evenodd" clip-rule="evenodd" d="M4.78688 1H19.0328V3.3065H21.5574V5.61287H23V18.2097H21.5574V20.6936H19.0328V23H4.78688V20.6936H2.2623V18.2096H1V5.61287H2.2623V3.3065H4.78688V1Z" fill="#8200BC"/>
<rect width="11.7681" height="3.48152" rx="1.74076" transform="matrix(0.50611 -0.862469 0.86951 0.493915 5.50824 16.2947)" fill="white"/>
<path fill-rule="evenodd" clip-rule="evenodd" d="M10.0164 16.0271L10.6094 17.0376C10.7776 17.3241 11.1481 17.4234 11.4369 17.2593C11.7258 17.0952 11.8237 16.7299 11.6556 16.4433L10.7139 14.8386L10.0164 16.0271Z" fill="white"/>
<path d="M12.1804 12.3524L14.6643 16.5852C15.1469 17.4077 16.2159 17.6895 17.0518 17.2147C17.8877 16.7398 18.1742 15.6881 17.6915 14.8657L14.1234 8.78522C14.0938 9.00064 14.022 9.2141 13.9046 9.41402L12.1804 12.3524Z" fill="white"/>
</svg>
