<svg width="24" height="24" viewBox="0 0 24 24" fill="none" xmlns="http://www.w3.org/2000/svg">
<circle cx="12" cy="12" r="11" fill="#222428"/>
<path d="M20.4884 9.01581C20.7916 9.73355 20.9242 10.4513 21 11.2257C20.8105 11.2446 20.6589 11.2729 20.5074 11.2729C18.5463 11.2729 16.5853 11.2635 14.6242 11.2824C14.1884 11.2824 13.8474 11.169 13.5821 10.8196C13.4589 10.6591 13.3263 10.5174 13.1842 10.3757C12.8716 10.083 12.6253 10.083 12.3032 10.3757C12.0947 10.5646 11.9147 10.7724 11.7158 10.9801C11.5263 11.1785 11.3084 11.2824 11.0242 11.2824C8.42842 11.2824 5.82316 11.2824 3.22737 11.2729C3.17053 11.2729 3.11368 11.2446 3 11.2162C3.00947 10.4607 3.20842 9.74299 3.47368 9.00637C3.71053 9.00637 3.92842 9.00637 4.14632 9.00637C6.70421 9.00637 9.2621 8.99693 11.8295 9.01581C12.3789 9.02526 12.8053 8.86471 13.1274 8.43029C13.6674 7.71255 14.0558 7.74089 14.5674 8.45862C14.88 8.90249 15.2779 9.02526 15.8084 9.00637C17.1632 8.97804 18.5274 8.99693 19.8916 8.99693C20.0905 9.01581 20.28 9.01581 20.4884 9.01581Z" fill="white"/>
<path d="M20.9431 13.6811C20.6589 14.5027 20.4221 15.211 20.1758 15.9382C19.9105 15.9382 19.7116 15.9382 19.5126 15.9382C16.8505 15.9382 14.1979 15.9288 11.5358 15.9476C10.9958 15.9476 10.5884 15.806 10.2379 15.381C9.59367 14.6161 9.42315 14.6066 8.75052 15.3716C8.37157 15.7965 7.97367 15.976 7.39578 15.9571C6.27788 15.9099 5.15999 15.9382 4.04209 15.9382C4.0042 15.9382 3.96631 15.9193 3.87157 15.9004C3.47367 15.2677 3.30315 14.5122 3.09473 13.6811C3.36946 13.6811 3.57788 13.6811 3.79578 13.6811C5.41578 13.6811 7.03578 13.6717 8.65578 13.6905C9.15788 13.7 9.55578 13.5489 9.85894 13.1617C9.97262 13.02 10.0958 12.8878 10.2189 12.765C10.5126 12.4817 10.74 12.4912 11.0526 12.7745C11.081 12.8028 11.1095 12.8312 11.1379 12.8595C12 13.8228 11.8105 13.6717 13.0989 13.6811C15.4579 13.6905 17.8168 13.6811 20.1758 13.6811C20.3842 13.6811 20.6021 13.6811 20.9431 13.6811Z" fill="white"/>
<path d="M19.0863 6.61706C18.6031 6.61706 18.1295 6.60761 17.6463 6.61706C17.3242 6.6265 17.0684 6.50373 16.8695 6.24874C16.7274 6.07875 16.5853 5.90876 16.4337 5.75766C16.121 5.44601 15.8179 5.43657 15.4958 5.73877C15.2779 5.9371 15.0884 6.19208 14.861 6.37152C14.7 6.49429 14.4726 6.61706 14.2831 6.61706C11.1853 6.6265 8.07789 6.6265 4.97999 6.61706C4.95157 6.61706 4.91367 6.58873 4.88525 6.56984C6.05052 4.66217 8.96841 2.9906 11.9053 3.00004C14.8989 3.00948 17.2958 4.19942 19.1621 6.4754C19.1242 6.51317 19.1053 6.56984 19.0863 6.61706Z" fill="white"/>
<path d="M5.42535 18.1482C5.88009 18.1104 6.14535 17.8176 6.40114 17.5249C6.49588 17.421 6.58114 17.3077 6.68535 17.2132C6.95062 16.9677 7.20641 16.9771 7.48114 17.2227C7.50957 17.251 7.53799 17.2793 7.56641 17.3077C8.41904 18.2426 8.09693 18.1104 9.46114 18.1104C12.2843 18.1198 15.1075 18.1104 17.9211 18.1198C18.1106 18.1198 18.3096 18.1198 18.5464 18.1198C15.3822 21.8219 8.96851 22.0863 5.42535 18.1482Z" fill="white"/>
</svg>
