<svg width="24" height="24" viewBox="0 0 24 24" fill="none" xmlns="http://www.w3.org/2000/svg">
<path d="M12 23C18.0751 23 23 18.0751 23 12C23 5.92487 18.0751 1 12 1C5.92487 1 1 5.92487 1 12C1 18.0751 5.92487 23 12 23Z" fill="#0245F5"/>
<path d="M17.7117 16.997C18.0602 16.6006 18.3663 16.1689 18.6249 15.7088L17.079 14.9398C16.857 15.3139 16.5843 15.6554 16.2685 15.9546C15.8381 16.3544 15.38 16.5883 14.9131 16.6456C14.0118 16.7611 13.382 16.4817 12.463 15.8924C11.4985 15.2734 10.4047 14.5716 8.85289 14.77C7.91212 14.8904 7.04736 15.384 6.28626 16.2349C5.93764 16.6317 5.6319 17.0642 5.37411 17.5252L6.92298 18.2952C7.14532 17.9213 7.41729 17.5792 7.73147 17.2784C8.15793 16.8835 8.614 16.6515 9.08882 16.5874C9.2198 16.5708 9.35167 16.5622 9.48369 16.5617C10.1945 16.5617 10.767 16.8361 11.5409 17.3346C12.4422 17.9131 13.5656 18.6328 15.153 18.4314C16.1036 18.3129 16.9694 17.8282 17.7117 16.997ZM17.7117 12.3939C18.0603 11.9969 18.3664 11.5644 18.6249 11.1036L17.079 10.3346C16.857 10.7088 16.5843 11.0503 16.2685 11.3494C15.8381 11.7502 15.38 11.9832 14.9131 12.0405C14.0118 12.156 13.382 11.8776 12.463 11.2882C11.4985 10.6742 10.4047 9.96939 8.85289 10.1668C7.91212 10.2882 7.04736 10.7808 6.28626 11.6328C5.93744 12.029 5.63168 12.4612 5.37411 12.922L6.92298 13.691C7.14534 13.3174 7.41731 12.9757 7.73147 12.6752C8.1599 12.2803 8.614 12.0503 9.08882 11.9842C9.21975 11.9671 9.35165 11.9585 9.48369 11.9585C10.1945 11.9585 10.767 12.233 11.5409 12.7305C12.4422 13.31 13.5656 14.0296 15.153 13.8282C16.1115 13.7038 16.9743 13.2201 17.7196 12.3889L17.7117 12.3939ZM17.7117 7.79071C18.0603 7.3937 18.3664 6.96127 18.6249 6.50048L17.079 5.73049C16.857 6.10491 16.5843 6.44676 16.2685 6.74629C15.8381 7.14708 15.38 7.38005 14.9131 7.4373C14.0118 7.55181 13.382 7.27442 12.463 6.68508C11.4995 6.06514 10.4057 5.36425 8.85388 5.56169C7.91212 5.68508 7.04934 6.1757 6.28724 7.02664C5.93833 7.4234 5.63226 7.85587 5.37411 8.31687L6.92298 9.08785C7.14509 8.7141 7.41708 8.37235 7.73147 8.07205C8.1599 7.67719 8.614 7.44718 9.08882 7.38103C9.21975 7.36394 9.35165 7.35537 9.48369 7.35537C10.1945 7.35537 10.767 7.6298 11.5409 8.12733C12.4422 8.70581 13.5646 9.42644 15.153 9.22506C16.1115 9.10068 16.9743 8.61697 17.7196 7.78577L17.7117 7.79071Z" fill="white"/>
</svg>
