<svg width="24" height="24" viewBox="0 0 24 24" fill="none" xmlns="http://www.w3.org/2000/svg">
<path fill-rule="evenodd" clip-rule="evenodd" d="M4.82574 2.82573L3 4.65146V11.9701V19.2886L3.10604 19.398C3.27256 19.5698 6.55128 22.9089 6.60063 22.957L6.64476 23H12.5109H18.3769L18.4771 22.8997C18.5322 22.8445 19.2726 22.0849 20.1224 21.2115C20.9723 20.3382 21.739 19.5511 21.8262 19.4623L21.9849 19.301V11.9708V4.64058L21.5292 4.18167C21.2786 3.92928 20.7768 3.42355 20.4141 3.05784C20.0515 2.69213 19.4432 2.07951 19.0624 1.69646L18.3701 1H12.5108H6.65146L4.82574 2.82573ZM18.3254 4.6594C18.3511 4.685 18.3448 10.8739 18.3192 10.8959C18.3026 10.9101 13.5265 11.5391 13.3469 11.5507C13.274 11.5554 13.2988 11.5216 14.9841 9.31323C16.8852 6.82212 16.7002 7.07461 16.6512 7.03814C16.5875 6.99075 14.7532 5.92965 14.735 5.92965C14.7107 5.92965 14.7953 5.73033 13.632 8.52552C12.6668 10.8449 12.5435 11.132 12.5217 11.1102C12.5183 11.1067 12.0314 9.941 11.4398 8.51966C10.4249 6.08115 10.3626 5.93539 10.3363 5.93564C10.307 5.93593 8.42761 7.02037 8.4023 7.05166C8.38137 7.07751 8.25697 6.91085 10.0843 9.30527C11.7598 11.5006 11.7997 11.5551 11.7296 11.5507C11.5557 11.5399 6.68229 10.8987 6.66571 10.8844C6.64006 10.8624 6.6338 4.685 6.6594 4.6594C6.67947 4.63934 18.3054 4.63934 18.3254 4.6594ZM11.7636 12.4471C11.7631 12.4597 11.0105 13.4554 10.0912 14.6597C8.24701 17.0754 8.38535 16.8917 8.39389 16.9137C8.4032 16.9376 10.3243 18.0504 10.3436 18.043C10.3677 18.0337 10.3236 18.1381 11.4603 15.4049C12.566 12.746 12.5323 12.8223 12.5686 12.9C12.576 12.9157 13.0498 14.0532 13.6214 15.4278C14.7917 18.2417 14.7092 18.0474 14.7331 18.0474C14.7482 18.0474 16.5085 17.0323 16.6351 16.9505C16.7015 16.9077 16.7851 17.0235 14.988 14.6689C14.0631 13.4571 13.3064 12.4578 13.3064 12.4484C13.3064 12.439 13.3108 12.4286 13.3162 12.4252C13.3215 12.4219 14.4398 12.5635 15.8011 12.7398C17.1624 12.9161 18.2823 13.0604 18.2897 13.0604C18.2971 13.0604 18.3113 13.0685 18.3212 13.0785C18.3451 13.1023 18.3493 19.3168 18.3254 19.3406C18.3054 19.3606 6.67947 19.3606 6.6594 19.3406C6.63885 19.32 6.63942 13.1025 6.65998 13.0864C6.7094 13.0477 11.7648 12.4144 11.7636 12.4471Z" fill="black"/>
</svg>
