<svg width="24" height="24" viewBox="0 0 24 24" fill="none" xmlns="http://www.w3.org/2000/svg">
<path fill-rule="evenodd" clip-rule="evenodd" d="M11.9251 7.00025L11.9196 2.27312L12.0623 2.27295L12.0679 7.00008L11.9251 7.00025Z" fill="white"/>
<path fill-rule="evenodd" clip-rule="evenodd" d="M16.7536 15.0051L20.7723 17.3705L20.6999 17.4936L16.6812 15.1281L16.7536 15.0051Z" fill="white"/>
<path fill-rule="evenodd" clip-rule="evenodd" d="M7.34031 15.1281L3.32155 17.4936L3.24915 17.3705L7.26791 15.0051L7.34031 15.1281Z" fill="white"/>
<path fill-rule="evenodd" clip-rule="evenodd" d="M11.9365 6.86102C11.9697 6.84185 12.0106 6.8419 12.0438 6.86115L16.7359 9.58505C16.769 9.60423 16.7893 9.63959 16.7892 9.67781C16.7892 9.71603 16.7687 9.75132 16.7356 9.7704L12.0435 12.4732C12.0103 12.4923 11.9696 12.4923 11.9365 12.4731L7.23808 9.75921C7.20496 9.74008 7.18457 9.70474 7.18457 9.6665C7.18457 9.62826 7.20498 9.59292 7.2381 9.5738L11.9365 6.86102ZM7.50569 9.66653L11.9901 12.2569L16.4683 9.67727L11.9899 7.07744L7.50569 9.66653Z" fill="white"/>
<path fill-rule="evenodd" clip-rule="evenodd" d="M7.23806 9.57382C7.27119 9.55466 7.31203 9.55466 7.34517 9.5738L12.0436 12.2877C12.0767 12.3069 12.0971 12.3422 12.0971 12.3804V17.7779C12.0971 17.8161 12.0767 17.8514 12.0437 17.8706C12.0106 17.8897 11.9699 17.8898 11.9367 17.8708L7.24436 15.1777C7.21114 15.1587 7.19064 15.1233 7.1906 15.085L7.18457 9.66662C7.18453 9.62835 7.20492 9.59297 7.23806 9.57382ZM7.39889 9.85209L7.40464 15.0228L11.883 17.5931V12.4422L7.39889 9.85209Z" fill="white"/>
<path fill-rule="evenodd" clip-rule="evenodd" d="M16.7357 9.58505C16.7688 9.60418 16.7892 9.63951 16.7892 9.67773V15.097C16.7892 15.1354 16.7686 15.1709 16.7352 15.19L12.0431 17.871C12.01 17.8899 11.9693 17.8898 11.9363 17.8706C11.9032 17.8515 11.8829 17.8162 11.8829 17.7781V12.3805C11.8829 12.3423 11.9034 12.3069 11.9366 12.2878L16.6287 9.58497C16.6618 9.56589 16.7026 9.56592 16.7357 9.58505ZM12.097 12.4424V17.5936L16.5751 15.0349V9.86295L12.097 12.4424Z" fill="white"/>
<path fill-rule="evenodd" clip-rule="evenodd" d="M11.9928 2L20.9858 7.19223V17.5762L11.9928 22.7684L3 17.5762V7.19223L11.9928 2ZM11.9928 2.57662L3.49936 7.48053V17.2879L11.9928 22.1918L20.4865 17.2879V7.48053L11.9928 2.57662Z" fill="white"/>
<path fill-rule="evenodd" clip-rule="evenodd" d="M20.9667 7.22049C21.0355 7.33996 20.9945 7.49264 20.875 7.5615L11.9927 12.6813L3.13889 7.56132C3.01952 7.49229 2.97871 7.33956 3.04774 7.22019C3.11677 7.10082 3.2695 7.06001 3.38887 7.12904L11.9931 12.1047L20.6257 7.12886C20.7451 7.06 20.8978 7.10103 20.9667 7.22049Z" fill="white"/>
<path fill-rule="evenodd" clip-rule="evenodd" d="M12.0071 12.1433C12.145 12.1433 12.2568 12.2551 12.2568 12.393V22.4801C12.2568 22.618 12.145 22.7298 12.0071 22.7298C11.8692 22.7298 11.7574 22.618 11.7574 22.4801V12.393C11.7574 12.2551 11.8692 12.1433 12.0071 12.1433Z" fill="white"/>
</svg>
