<svg width="24" height="24" viewBox="0 0 24 24" fill="none" xmlns="http://www.w3.org/2000/svg">
<circle cx="12" cy="12" r="12" fill="#222428"/>
<path d="M19.5453 9.34739C19.8147 9.98538 19.9326 10.6234 20 11.3117C19.8316 11.3285 19.6968 11.3537 19.5621 11.3537C17.8189 11.3537 16.0758 11.3453 14.3326 11.3621C13.9453 11.3621 13.6421 11.2614 13.4063 10.9508C13.2968 10.808 13.1789 10.6821 13.0526 10.5562C12.7747 10.296 12.5558 10.296 12.2695 10.5562C12.0842 10.7241 11.9242 10.9088 11.7474 11.0935C11.5789 11.2698 11.3853 11.3621 11.1326 11.3621C8.82526 11.3621 6.50947 11.3621 4.20211 11.3537C4.15158 11.3537 4.10105 11.3285 4 11.3033C4.00842 10.6318 4.18526 9.99377 4.42105 9.339C4.63158 9.339 4.82526 9.339 5.01895 9.339C7.29263 9.339 9.56632 9.3306 11.8484 9.34739C12.3368 9.35578 12.7158 9.21308 13.0021 8.82693C13.4821 8.18894 13.8274 8.21412 14.2821 8.85211C14.56 9.24665 14.9137 9.35578 15.3853 9.339C16.5895 9.31381 17.8021 9.3306 19.0147 9.3306C19.1916 9.34739 19.36 9.34739 19.5453 9.34739Z" fill="white"/>
<path d="M19.9494 13.4944C19.6968 14.2247 19.4863 14.8543 19.2673 15.5007C19.0315 15.5007 18.8547 15.5007 18.6778 15.5007C16.3115 15.5007 13.9536 15.4923 11.5873 15.5091C11.1073 15.5091 10.7452 15.3832 10.4336 15.0054C9.86101 14.3254 9.70943 14.317 9.11154 14.997C8.77469 15.3748 8.42101 15.5343 7.90733 15.5175C6.91364 15.4755 5.91996 15.5007 4.92627 15.5007C4.89259 15.5007 4.8589 15.4839 4.77469 15.4671C4.42101 14.9047 4.26943 14.2331 4.08417 13.4944C4.32838 13.4944 4.51364 13.4944 4.70733 13.4944C6.14733 13.4944 7.58732 13.486 9.02732 13.5028C9.47364 13.5112 9.82732 13.3768 10.0968 13.0327C10.1979 12.9067 10.3073 12.7892 10.4168 12.6801C10.6779 12.4283 10.88 12.4367 11.1579 12.6885C11.1831 12.7137 11.2084 12.7389 11.2336 12.764C12 13.6203 11.8315 13.486 12.9768 13.4944C15.0736 13.5028 17.1705 13.4944 19.2673 13.4944C19.4526 13.4944 19.6463 13.4944 19.9494 13.4944Z" fill="white"/>
<path d="M18.2989 7.21516C17.8695 7.21516 17.4484 7.20677 17.0189 7.21516C16.7326 7.22356 16.5053 7.11443 16.3284 6.88777C16.2021 6.73667 16.0758 6.58557 15.941 6.45125C15.6631 6.17423 15.3937 6.16584 15.1074 6.43447C14.9137 6.61075 14.7453 6.83741 14.5431 6.9969C14.4 7.10603 14.1979 7.21516 14.0295 7.21516C11.2758 7.22356 8.51368 7.22356 5.75999 7.21516C5.73473 7.21516 5.70104 7.18998 5.67578 7.17319C6.71157 5.47748 9.30525 3.99164 11.9158 4.00004C14.5768 4.00843 16.7074 5.06615 18.3663 7.08924C18.3326 7.12282 18.3158 7.17319 18.2989 7.21516Z" fill="white"/>
<path d="M6.15582 17.4652C6.56003 17.4317 6.79582 17.1714 7.02319 16.9112C7.1074 16.8188 7.18319 16.7181 7.27582 16.6342C7.51161 16.4159 7.73898 16.4243 7.98319 16.6426C8.00845 16.6677 8.03372 16.6929 8.05898 16.7181C8.81688 17.5492 8.53056 17.4317 9.74319 17.4317C12.2527 17.44 14.7621 17.4317 17.2632 17.44C17.4316 17.44 17.6085 17.44 17.819 17.44C15.0063 20.7307 9.3053 20.9658 6.15582 17.4652Z" fill="white"/>
</svg>
