<svg width="24" height="24" viewBox="0 0 24 24" fill="none" xmlns="http://www.w3.org/2000/svg">
<path fill-rule="evenodd" clip-rule="evenodd" d="M24 12C24 18.6274 18.6274 24 12 24C5.37258 24 0 18.6274 0 12C0 5.37258 5.37258 0 12 0C18.6274 0 24 5.37258 24 12ZM20.4884 9.0157C20.7916 9.73344 20.9242 10.4512 21 11.2256C20.9368 11.2319 20.8779 11.2392 20.8217 11.2462C20.7095 11.2602 20.6084 11.2728 20.5074 11.2728C20.0171 11.2728 19.5269 11.2722 19.0366 11.2716H19.0363C17.5656 11.2698 16.0949 11.2681 14.6242 11.2822C14.1884 11.2822 13.8474 11.1689 13.5821 10.8195C13.4589 10.6589 13.3263 10.5173 13.1842 10.3756C12.8716 10.0829 12.6253 10.0829 12.3032 10.3756C12.1555 10.5094 12.0222 10.6527 11.8862 10.7987C11.8303 10.8588 11.7738 10.9194 11.7158 10.98C11.5263 11.1784 11.3084 11.2822 11.0242 11.2822C8.42843 11.2822 5.82318 11.2822 3.22739 11.2728C3.19226 11.2728 3.15713 11.262 3.10858 11.247C3.07858 11.2378 3.04345 11.2269 3.00003 11.2161C3.0095 10.4606 3.20845 9.74288 3.47371 9.00626H4.14634C4.78522 9.00626 5.4241 9.00567 6.06313 9.00508H6.06357H6.06402H6.06446H6.06505C7.98386 9.00331 9.904 9.00154 11.8295 9.0157C12.3789 9.02514 12.8053 8.8646 13.1274 8.43018C13.6674 7.71245 14.0558 7.74078 14.5674 8.45851C14.88 8.90237 15.2779 9.02514 15.8084 9.00626C16.7759 8.98602 17.7481 8.98987 18.7218 8.99373H18.7218H18.7219H18.722C19.1117 8.99527 19.5016 8.99681 19.8916 8.99681C20.0905 9.0157 20.28 9.0157 20.4884 9.0157ZM20.3623 15.386C20.5453 14.8442 20.731 14.2942 20.9431 13.6811H20.1757C19.3894 13.6811 18.6031 13.6822 17.8168 13.6832C16.2441 13.6853 14.6715 13.6874 13.0989 13.6811C12.9236 13.6798 12.7756 13.6815 12.6487 13.683C12.3019 13.6869 12.1118 13.6891 11.9483 13.624C11.7498 13.545 11.5908 13.3668 11.2386 12.9722L11.2386 12.9722L11.1378 12.8595L11.0526 12.7745C10.74 12.4912 10.5126 12.4817 10.2189 12.765C10.0957 12.8878 9.97258 13.02 9.8589 13.1617C9.55574 13.5489 9.15785 13.7 8.65574 13.6906C7.44081 13.6764 6.22588 13.6782 5.01094 13.6799H5.01072C4.60574 13.6805 4.20075 13.6811 3.79576 13.6811H3.09471L3.13729 13.8516C3.32768 14.6156 3.50104 15.3112 3.87155 15.9004C3.91431 15.9089 3.94549 15.9175 3.97032 15.9243C4.0005 15.9325 4.02128 15.9382 4.04207 15.9382C4.34695 15.9382 4.65183 15.9361 4.95672 15.934C5.76973 15.9284 6.58274 15.9227 7.39575 15.9571C7.97364 15.976 8.37154 15.7965 8.75048 15.3716C9.42311 14.6066 9.59364 14.6161 10.2378 15.381C10.5884 15.806 10.9957 15.9476 11.5357 15.9476C13.532 15.9335 15.5229 15.9352 17.5165 15.937L17.5188 15.937C18.183 15.9376 18.8475 15.9382 19.5126 15.9382H20.1757C20.2382 15.7537 20.3001 15.5703 20.3623 15.386ZM18.6046 6.61494H18.6045C18.2856 6.61285 17.968 6.61076 17.6463 6.61705C17.3242 6.62649 17.0684 6.50372 16.8694 6.24874C16.7273 6.07875 16.5852 5.90876 16.4337 5.75765C16.121 5.44601 15.8179 5.43656 15.4958 5.73877C15.4024 5.82376 15.3142 5.91916 15.2261 6.01456L15.2261 6.01457C15.1085 6.14177 14.991 6.26897 14.861 6.37151C14.7 6.49428 14.4726 6.61705 14.2831 6.61705C11.1853 6.62649 8.07789 6.62649 4.98001 6.61705C4.95503 6.61705 4.92275 6.59517 4.896 6.57705L4.88527 6.56983C6.05053 4.66216 8.96842 2.9906 11.9053 3.00004C14.8989 3.00948 17.2958 4.19941 19.1621 6.47539C19.1288 6.50852 19.1102 6.55617 19.0933 6.59924L19.0863 6.61705C18.9249 6.61705 18.7646 6.61599 18.6046 6.61494ZM6.40104 17.5246C6.14525 17.8174 5.87998 18.1102 5.42525 18.1479C8.9684 22.086 15.3821 21.8216 18.5463 18.1196H17.921C16.5142 18.1149 15.105 18.1149 13.6946 18.1149C12.2842 18.1149 10.8726 18.1149 9.46103 18.1102C8.76289 18.1102 8.50638 18.1448 8.30806 18.0533C8.11884 17.966 7.98259 17.7639 7.5663 17.3074L7.48103 17.2224C7.2063 16.9769 6.95051 16.9675 6.68525 17.213C6.61577 17.276 6.55472 17.3473 6.49366 17.4187C6.46314 17.4543 6.43261 17.49 6.40104 17.5246Z" fill="white"/>
</svg>
