<svg width="24" height="24" viewBox="0 0 24 24" fill="none" xmlns="http://www.w3.org/2000/svg">
<path fill-rule="evenodd" clip-rule="evenodd" d="M24 12C24 18.6274 18.6274 24 12 24C5.37258 24 0 18.6274 0 12C0 5.37258 5.37258 0 12 0C18.6274 0 24 5.37258 24 12ZM12 7.068L8.50425 10.5637L8.50432 10.5636L6.47039 8.5296L12 3L17.5314 8.53126L15.4974 10.5653L12 7.068ZM5.03407 9.96563L3 12L5.03393 14.0336L7.068 11.9996L5.03407 9.96563ZM8.50424 13.4364L12 16.932L15.4973 13.4348L17.5324 15.4677L17.5314 15.4688L12 21L6.47039 15.4704L6.4675 15.4675L8.50424 13.4364ZM18.9661 9.96676L16.932 12.0008L18.966 14.0348L21 12.0007L18.9661 9.96676ZM14.0638 11.999H14.0631L14.065 12L14.064 12.0012L12 14.0651L9.93788 12.0027L9.935 11.9997L9.93788 11.9969L10.2993 11.6354L10.4746 11.4601L12 9.93506L14.0638 11.999Z" fill="white"/>
</svg>
