<svg width="24" height="24" viewBox="0 0 24 24" fill="none" xmlns="http://www.w3.org/2000/svg">
<path fill-rule="evenodd" clip-rule="evenodd" d="M12 24C18.6274 24 24 18.6274 24 12C24 5.37258 18.6274 0 12 0C5.37258 0 0 5.37258 0 12C0 18.6274 5.37258 24 12 24ZM14.1269 9.80075H10.6567V9.35069C10.6567 6.67531 12.8362 4.5 15.5168 4.5H19.5V8.0255H15.5168C14.7903 8.0255 14.189 8.62558 14.189 9.35069V9.80054H17.597V13.2968H14.1269V9.80075ZM10.6284 14.6502C10.6284 15.3751 10.033 15.9751 9.31343 15.9751C8.5939 15.9751 7.99842 15.3751 7.99842 14.6502C7.99842 13.9252 8.5939 13.3253 9.31343 13.3253H10.6284V14.6502ZM14.1269 13.3253H10.6284V9.80054H9.31343C6.6586 9.80054 4.5 11.9754 4.5 14.6502C4.5 17.325 6.6586 19.4998 9.31343 19.4998C11.9683 19.4998 14.1269 17.325 14.1269 14.6502V13.3253Z" fill="white"/>
</svg>
