<svg width="24" height="24" viewBox="0 0 24 24" fill="none" xmlns="http://www.w3.org/2000/svg">
<path fill-rule="evenodd" clip-rule="evenodd" d="M12 24C18.6274 24 24 18.6274 24 12C24 5.37258 18.6274 0 12 0C5.37258 0 0 5.37258 0 12C0 18.6274 5.37258 24 12 24ZM18.2743 8.66617C18.6329 9.01774 18.977 9.35513 19.2738 9.63186C19.4257 9.76544 19.497 9.96972 19.4617 10.17C19.3937 10.2958 19.314 10.4148 19.2238 10.5255C18.5268 11.424 11.6373 19.8609 11.6373 19.8609C11.6373 19.8609 11.2519 20.375 11.1615 20.375H11.1234C10.9547 20.3606 10.8643 20.0776 10.8167 19.9286L10.8166 19.9282C10.4547 18.9223 9.41687 16.4134 8.30066 13.7151L8.30064 13.7151C6.98035 10.5235 5.55045 7.06689 5 5.5191V5.49268V5.32211L5.01189 5.29088C5.03767 5.21513 5.07994 5.14617 5.1356 5.08909L5.1808 5.05305C5.2223 5.02524 5.26945 5.00718 5.31878 5.0002C5.48556 4.97972 13.5935 6.50742 16.0947 6.9787L16.4571 7.04697C16.5527 7.08138 16.642 7.13172 16.7211 7.19592L16.7687 7.22955C17.2384 7.65051 17.7706 8.17229 18.2742 8.66609L18.2742 8.66613L18.2743 8.66617ZM16.3453 8.15205L13.4049 10.6144L18.07 9.7568L16.3453 8.15205ZM12.263 10.4534L7.20055 6.26379L15.3913 7.78926L12.263 10.4534ZM17.9011 10.7081L12.7197 11.5513L11.9775 17.9151L17.9011 10.7081ZM6.51303 6.68181L11.8395 11.2462L11.0687 17.9198L6.51303 6.68181Z" fill="white"/>
</svg>
