<svg width="24" height="24" viewBox="0 0 24 24" fill="none" xmlns="http://www.w3.org/2000/svg">
<circle cx="12" cy="12" r="12" fill="#00EF8B"/>
<rect x="13.9142" y="10.0208" width="3.12313" height="3.14662" fill="white"/>
<path d="M10.7656 14.3854C10.7656 15.0379 10.2297 15.5778 9.58209 15.5778C8.93451 15.5778 8.39858 15.0379 8.39858 14.3854C8.39858 13.733 8.93451 13.193 9.58209 13.193H10.7656V10.0208H9.58209C7.19274 10.0208 5.25 11.9781 5.25 14.3854C5.25 16.7927 7.19274 18.7501 9.58209 18.7501C11.9714 18.7501 13.9142 16.7927 13.9142 14.3854V13.193H10.7656V14.3854Z" fill="white"/>
<path d="M15.1651 8.42295H18.75V5.25H15.1651C12.7526 5.25 10.791 7.20778 10.791 9.61562V10.0207H13.9701V9.61562C13.9701 8.96303 14.5112 8.42295 15.1651 8.42295Z" fill="white"/>
</svg>
