<svg width="24" height="24" viewBox="0 0 24 24" fill="none" xmlns="http://www.w3.org/2000/svg">
<path fill-rule="evenodd" clip-rule="evenodd" d="M12 24C18.6274 24 24 18.6274 24 12C24 5.37258 18.6274 0 12 0C5.37258 0 0 5.37258 0 12C0 18.6274 5.37258 24 12 24ZM6.14382 11.9294H11.1823C11.2863 11.9294 11.3714 11.8447 11.3808 11.7411C11.3808 11.6281 11.2957 11.534 11.1823 11.534H6.01148C5.45375 11.534 5 11.082 5 10.5266C5 9.78278 5.79406 9.29321 6.46523 9.63214L8.60162 10.7054C8.85685 10.8655 9.1499 10.8749 9.3106 10.6207C9.48076 10.3571 9.37677 10.0182 9.10263 9.87693L6.0871 8.36113C5.42539 8.02219 5.00945 7.34432 5.00945 6.60054V6.24277C5.00945 5.55548 5.56718 5 6.25726 5C6.73937 5 7.19311 5.23537 7.4767 5.62139L11.2674 10.7902C11.3147 10.8561 11.3997 10.8749 11.4754 10.8373C11.5604 10.7902 11.5888 10.6866 11.5415 10.6019L9.14045 7.1466C8.50709 6.24277 9.15935 5.00942 10.2559 5.00942H10.9838C11.7684 5.00942 12.3734 5.71553 12.2505 6.48756L11.8251 9.2273L11.825 9.22809L11.8244 9.25338C11.8277 9.2961 11.8519 9.33364 11.8876 9.35632C11.9053 9.36756 11.9258 9.37514 11.9479 9.37789C12.0141 9.37789 12.0708 9.34023 12.0897 9.28375L13.0634 6.02618C13.243 5.42362 13.7913 5.00937 14.4246 5.00937H17.1849C17.4192 5.00937 17.6469 5.05427 17.8581 5.13896C18.0347 5.20979 18.1996 5.30847 18.3469 5.432C18.3931 5.47075 18.4375 5.51194 18.4801 5.55548L18.4895 5.56485L18.4895 5.5649C18.8109 5.885 18.9905 6.32751 18.9905 6.77942V6.83591C18.9905 7.25958 18.8015 7.65501 18.4706 7.91863L13.1485 12.1742C13.1013 12.2118 13.0824 12.2872 13.1202 12.3436C13.1324 12.3606 13.1471 12.3745 13.1633 12.3849C13.21 12.4148 13.2695 12.4162 13.3186 12.3813L16.7123 9.76391C17.1872 9.39736 17.8 9.40206 18.2581 9.68242C18.5296 9.84853 18.7467 10.1114 18.8488 10.4512L18.8582 10.4889C19.1134 11.3551 18.4612 12.2213 17.5537 12.2213H14.6894C14.5854 12.2213 14.5098 12.306 14.5098 12.4001C14.5098 12.4657 14.5438 12.5199 14.5928 12.5509C14.6212 12.5688 14.6546 12.579 14.6893 12.579H17.9601C18.1006 12.579 18.2344 12.6064 18.3564 12.6562C18.4222 12.683 18.4845 12.7163 18.5426 12.7553C18.8191 12.9409 19 13.2557 19 13.6147L19 14.8V18.0866L19 18.0868C19 18.5952 18.5841 19 18.0831 19H18.0641C17.8634 19 17.6695 18.958 17.4926 18.8803C17.378 18.8298 17.2706 18.7644 17.1731 18.6856C17.0244 18.5653 16.899 18.4139 16.8068 18.2373L15.559 15.8742C15.5095 15.7811 15.4384 15.7078 15.3557 15.6566C15.1541 15.5319 14.8837 15.5379 14.6894 15.7048L14.6043 15.7801C14.3302 16.0155 14.264 16.4109 14.4531 16.7122L15.1431 17.5501L15.1431 17.5501C15.4929 18.1244 15.0014 19 14.3302 19H13.9615C13.7369 19 13.5221 18.9518 13.3279 18.8647C13.1788 18.7979 13.0417 18.7082 12.9217 18.5999C12.6451 18.3504 12.4584 18.002 12.4206 17.6065L12.137 13.3698C12.1309 13.3027 12.093 13.2435 12.0387 13.2101C12.0093 13.192 11.9751 13.1816 11.9386 13.1816C11.8302 13.1733 11.7439 13.2528 11.7315 13.3556L11.7305 13.3973L11.7306 13.3981L12.156 17.5219C12.2316 18.2468 11.6644 18.8776 10.9365 18.8776H6.52194C5.68062 18.8776 5 18.1997 5 17.3618V16.9758C5 16.2791 5.42539 15.6389 6.0682 15.3564C6.0682 15.3564 9.83052 13.7465 10.738 13.3605C10.842 13.3134 10.8893 13.191 10.8515 13.078V13.0686C10.8136 12.9462 10.6813 12.8991 10.5679 12.9462L7.19311 14.4526C6.17218 14.9327 5 14.189 5 13.0686C5 12.4378 5.51047 11.9294 6.14382 11.9294Z" fill="white"/>
</svg>
