<svg width="24" height="24" viewBox="0 0 24 24" fill="none" xmlns="http://www.w3.org/2000/svg">
<path d="M12.0618 15.1954L15.1591 19.9583L18.0203 18.3338L13.9526 12.052L12.0618 15.1954Z" fill="white"/>
<path d="M20.6258 16.4231L20.6237 15.1215L16.179 8.33862L14.5299 11.0801L18.8207 17.8792L20.3722 16.9984C20.5243 16.8774 20.6164 16.6997 20.6261 16.5079L20.6258 16.4231Z" fill="white"/>
<path d="M2.00007 17.6508L4.19091 18.8876L11.4815 7.43224L10.2441 7.40022C9.18985 7.38561 8.05422 7.65413 7.53292 8.48782L3.39283 14.7749L2 16.8717V17.6508H2.00007Z" fill="white"/>
<path d="M15.6893 7.43237L12.4283 7.44398L5.05042 19.3726L7.62918 20.8274L8.33048 19.662L15.6893 7.43237Z" fill="white"/>
<path d="M22.0002 7.41576C21.9729 6.74757 21.6037 6.13584 21.0252 5.77972L12.9181 1.21189C12.346 0.929576 11.6312 0.929235 11.0581 1.21168C10.9904 1.24514 3.17406 5.6866 3.17406 5.6866C3.06591 5.73739 2.96173 5.79795 2.86369 5.86664C2.34734 6.22924 2.03258 6.79263 2.00024 7.41166V16.8717L3.39307 14.775L3.38088 7.47564C3.38255 7.44894 3.38597 7.42272 3.39077 7.39678C3.4222 7.225 3.52011 7.0718 3.66749 6.9683C3.70428 6.94249 11.654 2.43398 11.6793 2.42156C11.8662 2.32959 12.1036 2.32864 12.2907 2.41876L20.2929 6.92863C20.4823 7.04674 20.6009 7.24706 20.6115 7.46601V16.5081C20.6018 16.6999 20.5244 16.8775 20.3722 16.9986L18.8208 17.8794L18.0204 18.3339L15.1592 19.9585L12.2576 21.6061C12.1013 21.6614 11.9185 21.6583 11.7636 21.5965L8.33055 19.6619L7.62926 20.8272L10.7144 22.5676C10.8164 22.6244 10.9074 22.6747 10.9819 22.7158C11.0975 22.7793 11.1761 22.8217 11.2039 22.8349C11.4232 22.9392 11.7387 23 12.023 23C12.2837 23 12.5378 22.9531 12.7784 22.8608L21.2062 18.0787C21.6899 17.7115 21.9745 17.1578 22.0002 16.5579V7.41576Z" fill="white"/>
</svg>
