<svg width="24" height="24" viewBox="0 0 24 24" fill="none" xmlns="http://www.w3.org/2000/svg">
<path d="M10.9487 11.9092H4.47063C3.65631 11.9092 3 12.5629 3 13.3739C3 14.8144 4.50709 15.7707 5.81971 15.1533L10.1587 13.2165C10.3045 13.156 10.4747 13.2165 10.5233 13.3739V13.386C10.5719 13.5313 10.5111 13.6886 10.3774 13.7492C9.21066 14.2455 4.3734 16.3154 4.3734 16.3154C3.54693 16.6785 3 17.5017 3 18.3974V18.8937C3 19.9711 3.87508 20.8426 4.95678 20.8426H10.6327C11.5685 20.8426 12.2978 20.0316 12.2005 19.0995L11.6536 13.7976C11.6415 13.6402 11.763 13.5071 11.921 13.5192C12.0547 13.5192 12.1641 13.6281 12.1762 13.7613L12.5408 19.2085C12.6381 20.2253 13.501 21 14.5219 21H14.9959C15.8589 21 16.4909 19.8742 16.0412 19.1358L15.1539 18.0585C14.9109 17.6711 14.9959 17.1627 15.3484 16.8601L15.4578 16.7633C15.8103 16.4606 16.3572 16.5696 16.576 16.9812L18.1803 20.0195C18.4963 20.6247 19.1161 21 19.7967 21H19.8211C20.4652 21 21 20.4795 21 19.8258V14.076C21 13.3376 20.4044 12.7444 19.6631 12.7444H15.4578C15.3363 12.7444 15.2269 12.6476 15.2269 12.5145C15.2269 12.3934 15.3241 12.2845 15.4578 12.2845H19.1404C20.3072 12.2845 21.1458 11.1708 20.8177 10.0572L20.8055 10.0087C20.4531 8.83456 19.031 8.37458 18.0587 9.12508L13.6955 12.4902C13.6104 12.5508 13.501 12.5266 13.4402 12.4418C13.3916 12.3692 13.4159 12.2724 13.4767 12.2239L20.3194 6.75252C20.7448 6.41358 20.9878 5.90518 20.9878 5.36046V5.28783C20.9878 4.70679 20.7569 4.13786 20.3437 3.72629L20.3315 3.71419C19.894 3.26631 19.2984 3.0121 18.6664 3.0121C17.6941 3.0121 16.1992 3.0121 15.1175 3.0121C14.3032 3.0121 13.5982 3.54472 13.3673 4.31943L12.1155 8.50773C12.0911 8.58036 12.0182 8.62878 11.9331 8.62878C11.8359 8.61667 11.763 8.53194 11.7751 8.4351L12.3221 4.91257C12.4801 3.91997 11.7022 3.0121 10.6934 3.0121H9.75759C8.34773 3.0121 7.50911 4.59785 8.32343 5.75992L11.4105 10.2024C11.4713 10.3114 11.4348 10.4445 11.3254 10.505C11.2282 10.5535 11.1188 10.5292 11.0581 10.4445L6.18433 3.79892C5.81971 3.30262 5.23633 3 4.61647 3C3.72924 3 3.01215 3.71419 3.01215 4.59785V5.05783C3.01215 6.01412 3.54693 6.88567 4.3977 7.32145L8.27481 9.27034C8.62727 9.45191 8.76097 9.88769 8.5422 10.2266C8.33558 10.5535 7.95881 10.5414 7.63065 10.3356L4.88386 8.95561C4.02093 8.51983 3 9.14929 3 10.1056C3 10.8198 3.58339 11.4008 4.30047 11.4008H10.9487C11.0945 11.4008 11.2039 11.5218 11.2039 11.6671C11.1918 11.8003 11.0824 11.9092 10.9487 11.9092Z" fill="url(#paint0_linear)"/>
<path d="M11.6536 13.7976C11.6521 13.7786 11.6526 13.76 11.6548 13.7419L11.7743 8.4696C11.7734 8.45834 11.7736 8.4468 11.7751 8.43508L11.7743 8.4696C11.781 8.55136 11.8477 8.61812 11.9331 8.62876C12.0182 8.62876 12.0911 8.58034 12.1154 8.50771L13.3673 4.31941C13.5982 3.5447 14.3031 3.01208 15.1175 3.01208H18.6664C19.2984 3.01208 19.894 3.26629 20.3315 3.71417L20.3436 3.72627C20.7569 4.13784 20.9878 4.70677 20.9878 5.28781V5.36044C20.9878 5.90516 20.7447 6.41356 20.3193 6.7525L13.4767 12.2239C13.4159 12.2723 13.3916 12.3692 13.4402 12.4418C13.501 12.5265 13.6104 12.5507 13.6954 12.4902L18.0587 9.12506C19.031 8.37456 20.453 8.83454 20.8055 10.0087L20.8176 10.0571C21.1458 11.1708 20.3072 12.2844 19.1404 12.2844H15.4578C15.3241 12.2844 15.2268 12.3934 15.2268 12.5144C15.2268 12.6476 15.3362 12.7444 15.4578 12.7444H19.663C20.4044 12.7444 21 13.3376 21 14.076V19.8258C21 20.4795 20.4652 21 19.821 21H19.7967C19.1161 21 18.4962 20.6247 18.1802 20.0195L16.5759 16.9811C16.3572 16.5696 15.8102 16.4606 15.4578 16.7633L15.3484 16.8601C14.9959 17.1627 14.9108 17.6711 15.1539 18.0585L16.0412 19.1358C16.4908 19.8742 15.8588 21 14.9959 21H14.5219C13.501 21 12.638 20.2253 12.5408 19.2084L12.1762 13.7612C12.164 13.6281 12.0547 13.5191 11.921 13.5191C11.782 13.5085 11.6712 13.6102 11.6548 13.7419L11.6536 13.7976Z" fill="url(#paint1_radial)"/>
<path d="M19.7967 20.9998C19.1161 20.9998 18.4963 20.6246 18.1803 20.0193L17.3781 18.5002L21 15.6V19.8256C21 20.4793 20.4652 20.9998 19.8211 20.9998H19.7967Z" fill="url(#paint2_radial)"/>
<defs>
<linearGradient id="paint0_linear" x1="21" y1="12" x2="3" y2="12" gradientUnits="userSpaceOnUse">
<stop stop-color="#4E296D"/>
<stop offset="0.660326" stop-color="#593075"/>
<stop offset="0.849566" stop-color="#DFBD13"/>
<stop offset="0.912646" stop-color="#E0BE11"/>
<stop offset="1" stop-color="#4E296D"/>
</linearGradient>
<radialGradient id="paint1_radial" cx="0" cy="0" r="1" gradientUnits="userSpaceOnUse" gradientTransform="translate(16.5 -6.44999) rotate(88.9949) scale(25.6539 4.50069)">
<stop stop-color="#E0BE13"/>
<stop offset="0.315642" stop-color="#E0BE13"/>
<stop offset="1" stop-color="#583074"/>
</radialGradient>
<radialGradient id="paint2_radial" cx="0" cy="0" r="1" gradientUnits="userSpaceOnUse" gradientTransform="translate(28.65 18.75) rotate(135) scale(14.0007 7.8108)">
<stop offset="0.0959711" stop-color="#E0BE13"/>
<stop offset="0.448735" stop-color="#E0BE13"/>
<stop offset="1" stop-color="#583074"/>
</radialGradient>
</defs>
</svg>
