<svg width="38" height="24" viewBox="0 0 38 24" fill="none" xmlns="http://www.w3.org/2000/svg">
<path fill-rule="evenodd" clip-rule="evenodd" d="M22.7564 10.1765C20.8263 6.2393 16.7369 2.83337 11.9983 2.83337C7.25963 2.83337 3.17021 6.2393 1.24018 10.1765C0.794648 11.0895 0.980401 12.1839 1.7024 12.8999L6.10584 16.7984C6.41602 16.5951 6.77304 16.474 7.14319 16.4465C7.46113 16.4199 7.78129 16.4497 8.0888 16.5345C7.39775 14.7866 7.95784 12.7936 9.45917 11.6584C10.9605 10.5231 13.036 10.5231 14.5374 11.6584C16.0387 12.7936 16.5988 14.7866 15.9077 16.5345C16.2152 16.4497 16.5354 16.4199 16.8533 16.4465C17.2236 16.4734 17.5808 16.5945 17.8907 16.7984L22.3047 12.8999C23.0231 12.1815 23.2046 11.0873 22.7564 10.1765Z" fill="#14AAFF"/>
<path fill-rule="evenodd" clip-rule="evenodd" d="M12.0018 16.3938C12.9086 16.3938 13.3673 16.8055 13.8507 17.3438C14.8563 16.5563 15.2506 15.2195 14.8328 14.0145C14.415 12.8094 13.2769 12.001 11.9983 12.001C10.7196 12.001 9.58158 12.8094 9.16377 14.0145C8.74596 15.2195 9.14026 16.5563 10.1459 17.3438C10.6293 16.8055 11.0915 16.3938 11.9947 16.3938H12.0018Z" fill="#0077FF"/>
<path fill-rule="evenodd" clip-rule="evenodd" d="M12.0088 21.8334C12.4233 21.8303 12.8237 21.6835 13.1415 21.4182L16.998 18.1495C16.0065 16.999 14.5281 18.234 14.5281 18.234C14.3294 18.4147 14.0735 18.5205 13.8048 18.533C13.5722 18.531 13.352 18.4283 13.2014 18.2516C12.9365 17.8606 12.4926 17.6281 12.0194 17.6323H11.9877C11.5132 17.6269 11.0678 17.8595 10.8021 18.2516C10.651 18.4275 10.4311 18.5301 10.1988 18.533C9.92841 18.529 9.66828 18.4292 9.46487 18.2516C9.46487 18.2516 7.97942 17.0166 6.995 18.1671L10.8551 21.4182C11.1772 21.6789 11.5798 21.8206 11.9947 21.8193L12.0088 21.8334Z" fill="#0077FF"/>
<rect x="28" width="10" height="10" rx="2" fill="#E2F3FF"/>
</svg>
