<svg width="22" height="22" viewBox="0 0 22 22" fill="none" xmlns="http://www.w3.org/2000/svg">
<path fill-rule="evenodd" clip-rule="evenodd" d="M21.7564 9.17652C19.8263 5.2393 15.7369 1.83337 10.9983 1.83337C6.25963 1.83337 2.17021 5.2393 0.240177 9.17652C-0.205352 10.0895 -0.0195994 11.1839 0.702397 11.8999L5.10584 15.7984C5.41602 15.5951 5.77304 15.474 6.14319 15.4465C6.46113 15.4199 6.78129 15.4497 7.0888 15.5345C6.39775 13.7866 6.95784 11.7936 8.45917 10.6584C9.96049 9.52314 12.036 9.52314 13.5374 10.6584C15.0387 11.7936 15.5988 13.7866 14.9077 15.5345C15.2152 15.4497 15.5354 15.4199 15.8533 15.4465C16.2236 15.4734 16.5808 15.5945 16.8907 15.7984L21.3047 11.8999C22.0231 11.1815 22.2046 10.0873 21.7564 9.17652Z" fill="#14AAFF"/>
<path fill-rule="evenodd" clip-rule="evenodd" d="M11.0018 15.3938C11.9086 15.3938 12.3673 15.8055 12.8507 16.3438C13.8563 15.5563 14.2506 14.2195 13.8328 13.0145C13.415 11.8094 12.2769 11.001 10.9983 11.001C9.71962 11.001 8.58158 11.8094 8.16377 13.0145C7.74596 14.2195 8.14026 15.5563 9.14587 16.3438C9.62926 15.8055 10.0915 15.3938 10.9947 15.3938H11.0018Z" fill="#0077FF"/>
<path fill-rule="evenodd" clip-rule="evenodd" d="M11.0088 20.8334C11.4233 20.8303 11.8237 20.6835 12.1415 20.4182L15.998 17.1495C15.0065 15.999 13.5281 17.234 13.5281 17.234C13.3294 17.4147 13.0735 17.5205 12.8048 17.533C12.5722 17.531 12.352 17.4283 12.2014 17.2516C11.9365 16.8606 11.4926 16.6281 11.0194 16.6323H10.9877C10.5132 16.6269 10.0678 16.8595 9.80214 17.2516C9.65096 17.4275 9.43113 17.5301 9.19878 17.533C8.92841 17.529 8.66828 17.4292 8.46487 17.2516C8.46487 17.2516 6.97942 16.0166 5.995 17.1671L9.85506 20.4182C10.1772 20.6789 10.5798 20.8206 10.9947 20.8193L11.0088 20.8334Z" fill="#0077FF"/>
</svg>
