<svg width="24" height="24" viewBox="0 0 24 24" fill="none" xmlns="http://www.w3.org/2000/svg">
<path d="M15.9704 10.1855L9.33628 5.44902C10.2135 4.8104 11.1456 4.70396 11.3649 4.70396H11.4745C13.7225 4.43787 14.8738 5.87477 15.2028 6.46018C15.2576 6.56661 15.4221 6.61983 15.5317 6.56661L16.5186 6.08765L17.5055 5.60868C17.67 5.55546 17.7248 5.39581 17.6152 5.23615C16.7928 3.79925 14.5997 1.67051 11.0908 2.04304C9.28146 2.14947 5.77252 3.47994 5.22425 7.47133C5.22425 7.63099 4.67598 11.0902 8.51388 13.5382L15.2576 18.0618C14.2707 19.1794 12.8452 19.3391 12.6259 19.3391H12.5163C9.99421 19.6584 7.91078 17.1039 7.36251 16.3588C7.25285 16.2524 7.08837 16.1992 6.97872 16.3056L5.1146 17.4232C5.00494 17.5296 4.95012 17.6893 5.05977 17.7957C5.7177 18.7004 8.3494 22 12.0776 22C12.2969 22 12.5711 22 12.8452 21.9468C14.7093 21.8403 18.2731 20.5099 18.8214 16.4121C19.0955 15.7734 19.5341 12.74 15.9704 10.1855ZM8.02043 7.84386C8.02043 7.84386 8.02043 7.79064 8.02043 7.84386L14.3804 12.3142C16.08 13.5382 16.3542 14.8155 16.3542 15.4541L10.2135 11.3031C7.80113 9.81295 8.02043 7.9503 8.02043 7.84386Z" fill="#CBA434"/>
</svg>
