<svg width="24" height="24" viewBox="0 0 24 24" fill="none" xmlns="http://www.w3.org/2000/svg">
<path fill-rule="evenodd" clip-rule="evenodd" d="M5.7913 3.19995H18.4631C18.7654 3.19995 19.0448 3.35663 19.1955 3.61082L22.8874 9.83407C23.0788 10.1568 23.022 10.5642 22.7489 10.8259L12.5871 20.5645C12.2579 20.88 11.7283 20.88 11.3992 20.5645L1.25112 10.839C0.971692 10.5712 0.919368 10.152 1.12484 9.82725L5.07109 3.59085C5.22478 3.34797 5.49751 3.19995 5.7913 3.19995ZM16.8269 5.97842V7.72456H13.2173V8.93522C15.7524 9.0646 17.6545 9.59597 17.6686 10.2329L17.6685 11.5606C17.6544 12.1975 15.7524 12.7289 13.2173 12.8583V15.8294H10.8204V12.8583C8.28519 12.7289 6.38312 12.1975 6.369 11.5606L6.3691 10.2329C6.3832 9.59597 8.28519 9.0646 10.8204 8.93522V7.72456H7.2107V5.97842H16.8269ZM12.0188 11.9461C14.7243 11.9461 16.9857 11.4968 17.5391 10.8967C17.0698 10.3879 15.3723 9.98747 13.2173 9.87749V11.145C12.831 11.1648 12.43 11.1751 12.0188 11.1751C11.6076 11.1751 11.2066 11.1648 10.8204 11.145V9.87749C8.66534 9.98747 6.96786 10.3879 6.49856 10.8967C7.05198 11.4968 9.31331 11.9461 12.0188 11.9461Z" fill="#009393"/>
</svg>
