<svg width="22" height="18" viewBox="0 0 22 18" fill="none" xmlns="http://www.w3.org/2000/svg">
<path fill-rule="evenodd" clip-rule="evenodd" d="M4.7913 0.199951H17.4631C17.7654 0.199951 18.0448 0.356629 18.1955 0.610816L21.8874 6.83407C22.0788 7.15681 22.022 7.56415 21.7489 7.82585L11.5871 17.5645C11.2579 17.88 10.7283 17.88 10.3992 17.5645L0.25112 7.83901C-0.0283076 7.57123 -0.0806319 7.15199 0.124845 6.82725L4.07109 0.59085C4.22478 0.34797 4.49751 0.199951 4.7913 0.199951ZM15.8269 2.97842V4.72456H12.2173V5.93522C14.7524 6.0646 16.6545 6.59597 16.6686 7.23288L16.6685 8.56062C16.6544 9.19752 14.7524 9.72888 12.2173 9.85825V12.8294H9.82038V9.85825C7.28519 9.72888 5.38312 9.19752 5.369 8.56062L5.3691 7.23288C5.3832 6.59597 7.28519 6.0646 9.82038 5.93522V4.72456H6.2107V2.97842H15.8269ZM11.0188 8.94609C13.7243 8.94609 15.9857 8.49677 16.5391 7.89674C16.0698 7.38791 14.3723 6.98747 12.2173 6.87749V8.14504C11.831 8.16476 11.43 8.17514 11.0188 8.17514C10.6076 8.17514 10.2066 8.16476 9.82038 8.14504V6.87749C7.66534 6.98747 5.96786 7.38791 5.49856 7.89674C6.05198 8.49677 8.31331 8.94609 11.0188 8.94609Z" fill="#009393"/>
</svg>
