<svg width="24" height="24" viewBox="0 0 24 24" fill="none" xmlns="http://www.w3.org/2000/svg">
<circle cx="12" cy="12" r="11" fill="url(#paint0_linear_1560_2420)"/>
<path d="M11.7139 13.3815C11.7128 13.5268 11.6687 13.6684 11.5872 13.7886C11.5057 13.9088 11.3905 14.0022 11.256 14.0571C11.1215 14.1119 10.9738 14.1256 10.8315 14.0966C10.6892 14.0676 10.5587 13.9971 10.4564 13.8941C10.3541 13.791 10.2846 13.6599 10.2566 13.5174C10.2287 13.3749 10.2436 13.2273 10.2994 13.0932C10.3552 12.9591 10.4495 12.8446 10.5703 12.764C10.6912 12.6835 10.8331 12.6405 10.9784 12.6405H11.7139V10.6709H10.9784C10.4414 10.667 9.91539 10.8225 9.467 11.1179C9.01861 11.4134 8.66805 11.8353 8.4598 12.3302C8.25156 12.8252 8.195 13.3708 8.2973 13.8979C8.39961 14.425 8.65617 14.9099 9.03444 15.291C9.41271 15.6721 9.89565 15.9323 10.422 16.0385C10.9483 16.1447 11.4944 16.0922 11.9908 15.8877C12.4873 15.6831 12.9119 15.3357 13.2106 14.8895C13.5093 14.4434 13.6688 13.9185 13.6688 13.3815V12.6405H11.7139V13.3815Z" fill="white"/>
<path d="M15.6082 10.671H13.6689V12.626H15.6082V10.671Z" fill="white"/>
<path d="M14.4468 9.67843H16.6734V7.70779H14.4468C13.7271 7.70779 13.0368 7.99331 12.5273 8.5017C12.0179 9.01008 11.731 9.6998 11.7295 10.4195V10.671H13.7035V10.4195C13.7049 10.223 13.7838 10.035 13.9229 9.89632C14.0621 9.75759 14.2503 9.6793 14.4468 9.67843Z" fill="white"/>
<path d="M14.4468 9.87627H16.8735V7.50659H14.4468C13.6738 7.50659 12.9323 7.81331 12.3851 8.35942C11.8379 8.90554 11.5298 9.64644 11.5283 10.4195V10.4698H10.9784C10.4015 10.4649 9.8361 10.6316 9.35403 10.9485C8.87196 11.2655 8.49493 11.7185 8.27076 12.2502C8.0466 12.7818 7.98542 13.368 8.09498 13.9344C8.20454 14.5009 8.4799 15.022 8.88613 15.4317C9.29235 15.8414 9.81113 16.1212 10.3766 16.2355C10.9421 16.3499 11.5288 16.2937 12.0623 16.074C12.5958 15.8544 13.052 15.4812 13.3731 15.0018C13.6942 14.5225 13.8656 13.9585 13.8656 13.3816V12.8227H15.8105V10.4698H13.9047V10.4195C13.9059 10.276 13.9633 10.1387 14.0647 10.0371C14.1661 9.93547 14.3033 9.87773 14.4468 9.87627ZM11.9151 10.8677H13.4688V12.4326H11.9151V10.8677ZM13.4688 13.3782C13.4648 13.8699 13.3154 14.3494 13.0393 14.7563C12.7633 15.1632 12.373 15.4793 11.9176 15.6647C11.4622 15.8501 10.9621 15.8965 10.4803 15.7982C9.99856 15.6998 9.55669 15.4611 9.21042 15.112C8.86414 14.7629 8.62894 14.3192 8.53447 13.8366C8.43999 13.3541 8.49047 12.8544 8.67954 12.4005C8.86861 11.9466 9.18781 11.5589 9.5969 11.2861C10.006 11.0133 10.4867 10.8677 10.9784 10.8677H11.5183V12.4326H10.984C10.7976 12.4317 10.6152 12.4862 10.4599 12.5891C10.3045 12.6919 10.1832 12.8386 10.1113 13.0105C10.0393 13.1824 10.0201 13.3718 10.0559 13.5546C10.0917 13.7375 10.181 13.9056 10.3124 14.0377C10.4439 14.1698 10.6115 14.2598 10.7942 14.2965C10.9769 14.3332 11.1664 14.3148 11.3386 14.2437C11.5109 14.1726 11.6581 14.052 11.7617 13.8971C11.8653 13.7423 11.9207 13.5601 11.9207 13.3738V12.8339H13.4744L13.4688 13.3782ZM11.5183 12.8417V13.3816C11.5172 13.487 11.4849 13.5898 11.4255 13.6769C11.3661 13.764 11.2823 13.8316 11.1846 13.8712C11.0869 13.9108 10.9796 13.9206 10.8764 13.8994C10.7731 13.8781 10.6784 13.8268 10.6042 13.7518C10.5301 13.6769 10.4797 13.5817 10.4596 13.4782C10.4394 13.3747 10.4503 13.2676 10.4909 13.1703C10.5315 13.073 10.6 12.9899 10.6877 12.9314C10.7755 12.8729 10.8785 12.8417 10.984 12.8417H11.5183ZM15.4081 10.8711V12.4237H13.8656V10.8711H15.4081ZM13.4688 10.4698H11.9307V10.4195C11.9319 9.75297 12.1975 9.11413 12.6693 8.64324C13.141 8.17235 13.7803 7.90787 14.4468 7.90787H16.4722V9.47275H14.4468C14.1968 9.47275 13.957 9.57199 13.7801 9.74867C13.6032 9.92535 13.5037 10.165 13.5034 10.415V10.4653L13.4688 10.4698Z" fill="black"/>
<path d="M11.9989 1C9.82334 1.00022 7.69671 1.64555 5.88792 2.85438C4.07913 4.06321 2.6694 5.78125 1.83701 7.79126C1.00462 9.80126 0.78694 12.013 1.2115 14.1467C1.63607 16.2804 2.6838 18.2403 4.22222 19.7786C5.76065 21.3168 7.72066 22.3644 9.85442 22.7887C11.9882 23.2131 14.1999 22.9952 16.2098 22.1626C18.2197 21.33 19.9376 19.9201 21.1462 18.1112C22.3549 16.3022 23 14.1755 23 12C22.9965 9.08351 21.8362 6.28751 19.7739 4.22535C17.7115 2.16319 14.9154 1.00325 11.9989 1ZM18.7838 17.7666C20.1597 16.1517 20.9129 14.0981 20.9074 11.9765C20.9019 9.85498 20.1379 7.80531 18.7536 6.19764L19.8322 5.11564C21.5028 7.01067 22.4273 9.44847 22.4334 11.9747C22.4396 14.5009 21.527 16.9432 19.8658 18.8464L18.7838 17.7666ZM18.8285 4.11747L17.7476 5.20059C16.1357 3.83361 14.0895 3.08579 11.976 3.09132C9.86254 3.09685 7.82022 3.85537 6.21553 5.23077L5.13353 4.151C7.02663 2.49107 9.45694 1.57309 11.9747 1.56692C14.4925 1.56076 16.9273 2.46683 18.8285 4.11747ZM4.13312 5.15364L5.21401 6.23229C4.68571 6.85051 4.24491 7.53842 3.90398 8.2767C3.86038 8.37059 3.81903 8.46672 3.77879 8.56285L5.33584 8.57067C6.10523 7.07683 7.35464 5.88514 8.88317 5.18721C10.4117 4.48929 12.1305 4.32569 13.7633 4.72272C15.396 5.11975 16.8478 6.05435 17.8852 7.37622C18.9226 8.69809 19.4853 10.3304 19.4828 12.0108C19.4803 13.6911 18.9128 15.3218 17.8716 16.6406C16.8303 17.9594 15.3758 18.8897 13.7419 19.2819C12.108 19.6742 10.3896 19.5055 8.86314 18.8031C7.33667 18.1007 6.09077 16.9053 5.32578 15.4092H3.76873C4.12576 16.265 4.61331 17.0602 5.21401 17.7666L4.13424 18.8486C2.47852 16.9516 1.56621 14.519 1.56621 12.0011C1.56621 9.48322 2.47852 7.05059 4.13424 5.15364H4.13312ZM5.13912 19.8512L6.21665 18.7703C6.33849 18.8754 6.46368 18.9783 6.5911 19.0755C8.20998 20.3151 10.2055 20.9611 12.2437 20.9053C14.2819 20.8496 16.2391 20.0955 17.7878 18.7692L18.8698 19.849C16.9704 21.5142 14.5305 22.4323 12.0045 22.4323C9.47846 22.4323 7.03854 21.5142 5.13912 19.849V19.8512Z" fill="black"/>
<path d="M3.51501 13.9148L2.55261 10.1143H3.40324L3.91741 12.8786L4.54336 10.111H5.37052L5.97188 12.9255L6.50058 10.111H7.33668L6.3631 13.9114H5.62425L4.94017 11.1226L4.2628 13.9114L3.51501 13.9148Z" fill="black"/>
<defs>
<linearGradient id="paint0_linear_1560_2420" x1="8.33333" y1="9.70833" x2="2.375" y2="6.95833" gradientUnits="userSpaceOnUse">
<stop stop-color="#16FF99"/>
<stop offset="1" stop-color="#85FFC3"/>
</linearGradient>
</defs>
</svg>
