<svg width="22" height="22" viewBox="0 0 22 22" fill="none" xmlns="http://www.w3.org/2000/svg">
<path d="M21.0891 6.70175C20.5286 5.40353 19.758 4.21053 18.742 3.19297C17.7261 2.17542 16.5701 1.40349 15.2389 0.842105C13.9076 0.28072 12.4714 0 10.965 0C9.49361 0 8.05733 0.28072 6.69108 0.877195C5.3949 1.43858 4.20382 2.21051 3.18791 3.22806C2.17195 4.24562 1.40129 5.40353 0.840785 6.73684C0.28028 8.07015 0 9.50879 0 10.9825C0 12.4561 0.28028 13.8948 0.87582 15.2632C1.43632 16.5614 2.20698 17.7544 3.22294 18.7719C4.23885 19.7895 5.3949 20.5614 6.72611 21.1228C8.09237 21.6842 9.52864 22 11 22C12.4714 22 13.9076 21.7193 15.2739 21.1228C16.5701 20.5614 17.7612 19.7895 18.7771 18.7719C19.793 17.7544 20.5637 16.5965 21.1242 15.2632C21.6847 13.8948 22 12.4561 22 10.9825C21.965 9.50879 21.6847 8.07015 21.0891 6.70175ZM7.32166 9.9649C7.77706 8.21051 9.38856 6.91229 11.2803 6.91229H18.9172C19.4076 7.85966 19.7229 8.87722 19.8281 9.9649H7.32166ZM19.8281 12.0351C19.6879 13.1228 19.4076 14.1403 18.9172 15.0877H11.2803C9.38856 15.0877 7.77706 13.7895 7.32166 12.0351H19.8281ZM4.65922 4.66664C6.34079 2.98243 8.58281 2.03511 10.965 2.03511C13.3471 2.03511 15.5891 2.9474 17.2707 4.66664C17.3057 4.70173 17.3758 4.77191 17.4109 4.807H11.2803C9.63375 4.807 8.09237 5.43862 6.93632 6.59648C6.02547 7.50877 5.42993 8.66668 5.21972 9.92981H2.13697C2.34713 7.96493 3.22295 6.14037 4.65922 4.66664ZM10.965 19.9298C8.58281 19.9298 6.34079 19.0176 4.65922 17.2983C3.22295 15.8596 2.34713 14.0351 2.13697 12.0351H5.25475C5.46496 13.2982 6.06051 14.4561 6.97136 15.3684C8.12741 16.5263 9.66878 17.1579 11.3153 17.1579H17.4809C17.4458 17.2281 17.3758 17.2632 17.3408 17.2983C15.5891 18.9825 13.3471 19.9298 10.965 19.9298Z" fill="black"/>
</svg>
