<svg width="24" height="24" viewBox="0 0 24 24" fill="none" xmlns="http://www.w3.org/2000/svg">
<circle cx="12" cy="12" r="12" fill="#E84142"/>
<path fill-rule="evenodd" clip-rule="evenodd" d="M12.6335 5.72512C12.2667 5.09163 11.6833 5.09163 11.3165 5.72512L4.65653 17.453C4.28977 18.0948 4.58985 18.6033 5.32336 18.6033H8.66585C9.34101 18.5616 9.9495 18.2032 10.3163 17.6364L14.3422 10.6597C14.634 10.0595 14.634 9.35101 14.3422 8.75086L13.1419 6.64201L12.6335 5.72512ZM17.0596 13.4437C16.6929 12.8102 16.1011 12.8102 15.7343 13.4437L13.4087 17.453C13.0503 18.0865 13.3504 18.6033 14.0756 18.6033H18.6767C19.4102 18.6033 19.7103 18.0865 19.3435 17.453L17.0596 13.4437Z" fill="white"/>
</svg>
