<svg width="24" height="24" viewBox="0 0 24 24" fill="none" xmlns="http://www.w3.org/2000/svg">
<path fill-rule="evenodd" clip-rule="evenodd" d="M12 24C18.6274 24 24 18.6274 24 12C24 5.37258 18.6274 0 12 0C5.37258 0 0 5.37258 0 12C0 18.6274 5.37258 24 12 24ZM11.2709 4.2668C11.6621 3.59108 12.2845 3.59108 12.6757 4.2668L13.2181 5.24481L14.4984 7.49425C14.8095 8.1344 14.8095 8.89014 14.4984 9.5303L10.204 16.9721C9.81278 17.5767 9.16373 17.959 8.44356 18.0035H4.87825C4.09584 18.0035 3.77576 17.4611 4.16696 16.7765L11.2709 4.2668ZM15.9832 12.4998C16.3744 11.8241 17.0057 11.8241 17.3969 12.4998L19.833 16.7764C20.2242 17.4522 19.9042 18.0034 19.1218 18.0034H14.2139C13.4404 18.0034 13.1203 17.4522 13.5026 16.7764L15.9832 12.4998Z" fill="white"/>
</svg>
