<svg width="24" height="24" viewBox="0 0 24 24" fill="none" xmlns="http://www.w3.org/2000/svg">
<path fill-rule="evenodd" clip-rule="evenodd" d="M12 24C18.65 24 24 18.65 24 12C24 5.34996 18.65 0 12 0C5.34996 0 0 5.34996 0 12C0 18.65 5.34996 24 12 24ZM15.3 13.8999C15.3 12.15 14.25 11.55 12.15 11.3C10.65 11.1 10.35 10.7 10.35 9.99992C10.35 9.29984 10.85 8.84996 11.85 8.84996C12.75 8.84996 13.25 9.14996 13.5 9.89996C13.55 10.05 13.7 10.1499 13.85 10.1499H14.65C14.85 10.1499 15 9.99992 15 9.8V9.74996C14.8 8.64992 13.9 7.79996 12.75 7.7V6.5C12.75 6.29996 12.6 6.14996 12.35 6.09992H11.6C11.4 6.09992 11.25 6.24992 11.2 6.5V7.64996C9.69997 7.85 8.75004 8.84996 8.75004 10.1C8.75004 11.75 9.75001 12.3999 11.85 12.65C13.25 12.9 13.7 13.2 13.7 14C13.7 14.8 13 15.35 12.05 15.35C10.75 15.35 10.3 14.7999 10.15 14.0499C10.1 13.85 9.95005 13.7499 9.80005 13.7499H8.94997C8.75005 13.7499 8.60005 13.8999 8.60005 14.1V14.15C8.79996 15.3999 9.60001 16.2999 11.25 16.55V17.75C11.25 17.9499 11.4 18.0999 11.65 18.15H12.4C12.6 18.15 12.75 18 12.8 17.75V16.55C14.3 16.2999 15.3 15.2499 15.3 13.8999ZM5.00005 9.54995C3.54997 13.4 5.55001 17.75 9.45001 19.15C9.60001 19.25 9.75001 19.45 9.75001 19.6V20.3C9.75001 20.4 9.75001 20.45 9.69997 20.5C9.65005 20.7 9.45001 20.8 9.24997 20.7C6.45001 19.8 4.29997 17.65 3.39997 14.85C1.89997 10.1 4.50001 5.04995 9.24997 3.54995C9.30001 3.50003 9.39997 3.50003 9.45001 3.50003C9.65005 3.54995 9.75001 3.69995 9.75001 3.89999V4.59995C9.75001 4.85003 9.65005 5.00003 9.45001 5.09999C7.40005 5.84999 5.75005 7.44995 5.00005 9.54995ZM14.3 3.74999C14.35 3.54995 14.55 3.44999 14.75 3.54995C17.5 4.44995 19.7 6.59999 20.6 9.44999C22.1 14.2 19.5 19.25 14.75 20.75C14.7 20.8 14.6 20.8 14.55 20.8C14.35 20.75 14.25 20.6 14.25 20.4V19.7C14.25 19.45 14.35 19.3 14.55 19.2C16.6 18.45 18.25 16.85 19 14.75C20.45 10.9 18.45 6.54995 14.55 5.15003C14.4 5.04995 14.25 4.85003 14.25 4.64999V3.95003C14.25 3.84995 14.25 3.80003 14.3 3.74999Z" fill="white"/>
</svg>
