<svg width="22" height="18" viewBox="0 0 22 18" fill="none" xmlns="http://www.w3.org/2000/svg">
<path fill-rule="evenodd" clip-rule="evenodd" d="M4.7913 0H17.4631C17.7654 0 18.0448 0.156678 18.1955 0.410865L21.8874 6.63412C22.0788 6.95686 22.022 7.3642 21.7489 7.6259L11.5871 17.3645C11.2579 17.68 10.7283 17.68 10.3992 17.3645L0.25112 7.63906C-0.0283076 7.37128 -0.0806319 6.95203 0.124845 6.6273L4.07109 0.390899C4.22478 0.148019 4.49751 0 4.7913 0ZM15.8269 2.77847V4.52461H12.2173V5.73527C14.7524 5.86465 16.6545 6.39602 16.6686 7.03293L16.6685 8.36067C16.6544 8.99757 14.7524 9.52893 12.2173 9.6583V12.6294H9.82038V9.6583C7.28519 9.52893 5.38312 8.99757 5.369 8.36067L5.3691 7.03293C5.3832 6.39602 7.28519 5.86465 9.82038 5.73527V4.52461H6.2107V2.77847H15.8269ZM11.0188 8.74614C13.7243 8.74614 15.9857 8.29682 16.5391 7.69679C16.0698 7.18796 14.3723 6.78752 12.2173 6.67754V7.94509C11.831 7.96481 11.43 7.97519 11.0188 7.97519C10.6076 7.97519 10.2066 7.96481 9.82038 7.94509V6.67754C7.66534 6.78752 5.96786 7.18796 5.49856 7.69679C6.05198 8.29682 8.31331 8.74614 11.0188 8.74614Z" fill="white"/>
</svg>
