<svg width="24" height="24" viewBox="0 0 24 24" fill="none" xmlns="http://www.w3.org/2000/svg">
<path d="M14.5299 11.0802L16.179 8.33876L20.6237 15.1216L20.6258 16.4232L20.6113 7.46595C20.6008 7.247 20.4821 7.04668 20.2928 6.92857L12.2906 2.4187C12.1034 2.32858 11.866 2.32953 11.6792 2.4215C11.654 2.43392 11.6302 2.44737 11.6075 2.46205L11.5797 2.47925L3.81222 6.88938L3.78204 6.90276C3.7433 6.92024 3.70414 6.94243 3.66734 6.96824C3.5201 7.07174 3.42227 7.22474 3.39063 7.39638C3.38589 7.42239 3.38241 7.44888 3.38074 7.47558L3.39293 14.7749L7.53302 8.4878C8.05425 7.65411 9.18995 7.38559 10.2442 7.4002L11.4816 7.43222L4.19101 18.8876L5.05042 19.3724L12.4283 7.44383L15.6894 7.43222L8.33048 19.6618L11.3971 21.39L11.7635 21.5964C11.9185 21.6582 12.1012 21.6612 12.2575 21.606L20.3722 16.9986L18.8207 17.8794L14.5299 11.0802ZM15.1591 19.9584L12.0617 15.1955L13.9525 12.0521L18.0202 18.3339L15.1591 19.9584Z" fill="#2D374B"/>
<path d="M12.0617 15.1954L15.1591 19.9583L18.0203 18.3338L13.9525 12.052L12.0617 15.1954Z" fill="#28A0F0"/>
<path d="M20.6258 16.4231L20.6237 15.1215L16.179 8.33862L14.5299 11.0801L18.8207 17.8792L20.3722 16.9984C20.5243 16.8774 20.6164 16.6997 20.6261 16.5079L20.6258 16.4231Z" fill="#28A0F0"/>
<path d="M2.00007 17.6508L4.19091 18.8876L11.4815 7.43224L10.2441 7.40022C9.18985 7.38561 8.05422 7.65413 7.53292 8.48782L3.39283 14.7749L2 16.8717V17.6508H2.00007Z" fill="white"/>
<path d="M15.6893 7.43237L12.4283 7.44398L5.05042 19.3726L7.62918 20.8274L8.33048 19.662L15.6893 7.43237Z" fill="white"/>
<path d="M22.0002 7.41576C21.973 6.74757 21.6037 6.13584 21.0253 5.77972L12.9182 1.21189C12.346 0.929576 11.6312 0.929235 11.0582 1.21168C10.9904 1.24514 3.17412 5.6866 3.17412 5.6866C3.06597 5.73739 2.96179 5.79795 2.86375 5.86664C2.3474 6.22924 2.03264 6.79263 2.00031 7.41166V16.8717L3.39313 14.775L3.38094 7.47564C3.38261 7.44894 3.38603 7.42272 3.39083 7.39678C3.42226 7.225 3.52017 7.0718 3.66755 6.9683C3.70434 6.94249 11.6541 2.43398 11.6794 2.42156C11.8663 2.32959 12.1037 2.32864 12.2908 2.41876L20.293 6.92863C20.4823 7.04674 20.601 7.24706 20.6115 7.46601V16.5081C20.6018 16.6999 20.5245 16.8775 20.3723 16.9986L18.8209 17.8794L18.0204 18.3339L15.1592 19.9585L12.2576 21.6061C12.1013 21.6614 11.9186 21.6583 11.7636 21.5965L8.33061 19.6619L7.62932 20.8272L10.7145 22.5676C10.8165 22.6244 10.9074 22.6747 10.982 22.7158C11.0975 22.7793 11.1762 22.8217 11.204 22.8349C11.4233 22.9392 11.7387 23 12.0231 23C12.2837 23 12.5379 22.9531 12.7784 22.8608L21.2063 18.0787C21.69 17.7115 21.9746 17.1578 22.0002 16.5579V7.41576Z" fill="#96BEDC"/>
</svg>
