<svg width="24" height="24" viewBox="0 0 24 24" fill="none" xmlns="http://www.w3.org/2000/svg">
<path d="M6.10818 11.4972C5.88507 11.6886 5.03723 11.6248 5.03723 11.6248C5.12648 12.25 5.44521 13.0666 5.44521 13.0666C5.52809 12.9901 6.10818 11.4972 6.10818 11.4972Z" fill="white"/>
<path d="M15.7913 8.55605C15.2303 7.69477 13.6494 7.91806 13.6494 7.91806C11.3736 8.13498 10.1114 9.72355 10.1114 9.72355C9.16162 11.0442 9.92021 11.3504 9.92021 11.3504C10.9593 11.5546 11.1824 10.5976 11.1824 10.5976C10.666 10.6167 10.8318 10.1957 10.8318 10.1957C11.4693 8.86866 12.7315 8.49225 12.7315 8.49225L9.95845 13.8194L12.3426 13.8577C13.9682 13.8896 14.6502 12.1798 14.6502 12.1798C15.122 11.1335 14.0319 10.7316 14.0319 10.7316C16.467 9.9915 15.7913 8.55605 15.7913 8.55605ZM13.1012 12.6646C12.5211 13.6025 11.9729 13.443 11.9729 13.443C11.6733 13.2899 11.8964 12.9135 11.8964 12.9135L12.706 11.2675L12.7761 11.1207C12.7761 11.1207 12.9482 10.7124 13.3817 11.0187C13.8789 11.3568 13.1012 12.6646 13.1012 12.6646ZM14.8096 8.94521C14.4973 10.2658 13.3944 10.4572 13.2159 10.4636C13.0374 10.47 13.1267 10.285 13.1267 10.285L14.102 8.43483C14.1721 8.28809 14.2869 8.29447 14.2869 8.29447C15.0136 8.30085 14.8096 8.94521 14.8096 8.94521Z" fill="white"/>
<path d="M19.4186 12.8178C19.4186 12.8178 19.9222 12.8306 20.0689 12.9008C20.0689 12.9008 20.4577 11.6057 20.4832 11.006C20.4832 10.9741 20.0944 11.3696 19.731 11.4908C19.731 11.4908 19.5525 12.6073 19.4186 12.8178Z" fill="white"/>
<path d="M17.8186 16.8179C17.4934 17.3602 17.2576 17.9344 16.8496 18.3554C17.1046 17.8833 17.2958 17.3666 17.4042 16.8243L16.6137 16.8434C16.0846 19.0445 14.0893 20.6203 11.8136 20.6203C9.49316 20.6203 7.53612 19.0381 7.0134 16.8434C6.54167 16.4734 6.15281 16.3586 6.15281 16.3586C6.21018 16.8307 6.32493 17.2836 6.49067 17.7175C6.26755 17.3538 6.05719 16.971 5.8532 16.5691C5.78945 16.4479 5.7257 16.3203 5.66833 16.1927L5.0946 16.467C5.15835 16.5946 5.2221 16.7286 5.28585 16.8562C6.89865 20.027 9.09156 22.0876 11.8199 22.9681L11.9219 23L12.0239 22.9617C12.1833 22.9043 16.3779 21.4624 18.6473 16.7222L17.8186 16.8179ZM13.9746 21.1434C12.9738 21.858 12.1705 22.2216 11.9028 22.3301C10.7681 21.9473 9.7354 21.3412 8.79832 20.5182C9.69715 21.0796 10.7426 21.3795 11.8136 21.3795C12.8399 21.3795 13.8152 21.0988 14.6631 20.6139C14.4144 20.8117 14.185 20.9903 13.9746 21.1434Z" fill="white"/>
<path opacity="0.94" d="M9.92664 7.93086C9.92664 7.93086 9.50591 8.21795 9.25092 8.09674C9.25092 8.09674 7.74649 7.446 6.11456 8.35831C6.11456 8.35831 4.76949 9.21958 4.83324 10.3616C4.83324 10.3616 4.89061 11.2228 5.68745 10.974C5.68745 10.974 5.99981 10.9166 6.3313 10.4509C6.3313 10.4509 5.65558 10.1893 6.17193 9.32166C6.17193 9.32166 6.90503 7.9819 8.98319 8.46039C8.98319 8.46039 8.10985 9.20044 7.32576 10.5721C6.80303 11.4908 6.72653 11.6312 6.08906 13.1304C6.08906 13.1304 5.87869 13.7429 5.36872 13.8513C5.36872 13.8513 4.16389 14.1576 3.52005 14.6552C3.52005 14.6552 2.45547 15.4463 2.88258 16.1034C2.88258 16.1034 3.46267 16.8435 5.1201 15.7717C5.1201 15.7717 6.23568 15.1273 7.11539 13.7812C7.11539 13.7812 8.64532 13.2006 9.37204 11.7907C9.37204 11.7907 9.23817 11.612 9.12343 11.6503C9.12343 11.6503 8.22459 13.1559 7.4405 13.2644C7.33851 13.2389 7.40863 13.1368 7.40863 13.1368C7.73374 12.7795 8.7537 10.1574 8.7537 10.1574C8.7537 10.1574 9.21905 8.89421 9.7354 8.57522C9.7354 8.57522 10.4111 8.57522 10.6215 8.20519C10.6342 8.22433 10.7745 7.70119 9.92664 7.93086ZM3.64754 15.9567C3.27781 15.1018 5.51534 14.2533 5.51534 14.2533C4.10652 16.6393 3.64754 15.9567 3.64754 15.9567Z" fill="white"/>
<path d="M8.67071 6.3678C9.16156 6.24658 9.65879 6.15727 10.1496 6.08709C10.2644 6.34228 10.4046 6.56557 10.5895 6.69955L10.5959 6.91008C10.5959 6.91008 9.19981 6.98026 8.58784 7.31201C8.58784 7.31201 9.38468 7.40133 9.4548 7.50341C9.4548 7.50341 10.5513 6.91646 11.1505 7.58635C11.1505 7.58635 11.2971 7.66928 11.2971 8.03293C11.2971 8.03293 13.5537 6.68041 15.753 7.58635C15.753 7.58635 16.7602 7.93086 16.4734 9.2132C16.4734 9.2132 17.6527 8.61988 18.3667 8.98353L18.6217 8.67092C18.6217 8.67092 17.4423 7.90534 15.345 7.29925C15.345 7.29925 14.0765 6.89733 13.0183 6.89094C13.0183 6.89094 12.8972 6.67403 12.7505 6.61661C12.7505 6.61661 12.9099 6.31038 13.031 5.97863C13.388 6.00415 13.745 6.03605 14.0956 6.08709C15.9506 6.34866 17.7674 6.99302 19.5141 7.99465L20.1388 7.62462C18.2519 6.48902 16.2758 5.76172 14.255 5.46825C14.357 5.34065 14.5801 5.09184 14.8988 5.01528C14.8988 5.01528 15.3897 5.0089 15.6192 4.42196C15.6192 4.42196 15.6128 4.29436 15.8678 4.26884L19.9412 2.93546C19.9412 2.93546 20.1707 2.85252 20.0496 2.57819C20.0496 2.57819 19.9922 2.36127 19.7117 2.46973L15.6 4.05193C15.6 4.05193 15.4534 4.0902 15.4343 3.94347C15.4343 3.94347 15.1666 3.83501 14.9116 4.25608C14.9116 4.25608 14.7586 4.36454 14.5801 4.21142C14.5801 4.21142 13.4645 3.63724 12.3426 3.73931C12.3426 3.73931 12.0684 3.56706 12.2852 3.52878C12.2852 3.52878 12.878 3.52878 12.8717 3.20979C12.8717 3.20979 12.929 2.94184 12.4892 2.80786C12.4892 2.80786 12.2533 1.73605 11.0995 2.15074C11.0995 2.15074 10.4811 2.42507 10.5321 3.01839C10.5321 3.01839 9.75441 3.20979 9.70979 3.98813C9.70979 3.98813 9.73529 4.74733 9.92016 5.48101C9.43568 5.55118 8.95757 5.64688 8.47309 5.76172C5.24111 6.54643 3.18845 8.07759 3.10558 8.14777L2.96533 8.24985L2.97808 8.4221C2.98446 8.5178 3.16932 10.8337 4.05541 13.6599L4.66101 13.4685C3.95979 11.1527 3.71755 9.14302 3.6538 8.5497C4.17015 8.19243 6.03157 7.00578 8.67071 6.3678ZM12.9736 4.33902H13.5984C14.1083 4.35816 14.3442 4.8813 14.3442 4.8813C14.2358 5.0089 13.6557 5.14925 13.6557 5.14925C13.2414 5.21305 13.1904 4.8813 13.1904 4.8813C13.1521 4.70905 13.2796 4.57507 13.2796 4.57507H13.0246C12.8972 4.56869 12.8717 4.51127 12.8717 4.51127C12.8207 4.37092 12.9736 4.33902 12.9736 4.33902Z" fill="white"/>
<path d="M20.7636 8.02014C20.7636 8.02014 20.311 8.08394 19.9859 8.28172C18.985 8.9197 18.2328 10.5338 18.2328 10.5338C18.0225 11.0378 17.7866 11.025 17.7866 11.025C17.5252 11.0314 17.4615 10.7698 17.4615 10.7698C17.283 10.0617 18.3157 9.84477 18.3157 9.84477C17.3722 9.32801 16.4798 10.0617 16.4798 10.0617C15.7658 10.5912 16.1929 11.3185 16.1929 11.3185C16.5308 11.8417 17.5443 11.7779 17.5443 11.7779C17.4487 12.4222 16.9324 12.9135 16.9324 12.9135C15.8869 12.3712 15.1538 12.7285 15.1538 12.7285C14.6502 12.9071 14.7267 13.4175 14.7267 13.4175C14.9435 14.2788 16.569 13.8385 16.569 13.8385C16.8878 13.7237 17.0152 13.8704 17.0152 13.8704C17.6973 14.6807 18.7492 14.3298 18.7492 14.3298C19.3611 14.0491 19.6863 14.2022 19.6863 14.2022C20.1452 14.4957 19.7946 14.9997 19.7946 14.9997C19.3038 15.8546 17.5698 15.7078 17.5698 15.7078C17.0535 15.7206 15.3514 15.593 14.4016 15.1081C13.2478 14.5148 11.6031 14.3425 11.6031 14.3425C8.72173 13.9151 6.06348 15.7652 6.06348 15.7652C7.13443 15.7525 7.58066 16.4351 7.58066 16.4351C8.24363 15.8418 9.25084 15.4144 9.25084 15.4144C11.1186 14.5977 14.0574 15.7525 14.0574 15.7525C17.6463 16.735 19.4695 15.7652 19.4695 15.7652C20.8465 15.1145 20.209 13.9661 20.209 13.9661C19.9731 13.4685 18.4304 13.577 18.4304 13.577C17.6081 13.4685 17.8886 13.1814 17.8886 13.1814C18.8002 12.6455 19.1189 11.4397 19.1189 11.4397C19.2145 11.1973 19.4631 11.0569 19.4631 11.0569C21.1716 10.1701 21.5604 8.7602 21.5604 8.7602C21.7644 8.00101 20.9867 8.001 20.7636 8.02014ZM15.2813 13.258C15.4024 12.6583 16.4989 13.4558 16.4989 13.4558C15.2176 13.9279 15.2813 13.258 15.2813 13.258ZM19.6353 10.4445C19.6161 10.4572 19.5906 10.4381 19.597 10.4126C19.7755 10.0234 20.5341 8.39655 20.9931 8.63899C20.9994 8.63899 21.5604 9.00264 19.6353 10.4445Z" fill="white"/>
<path d="M9.26375 19.759C9.23825 19.759 9.20637 19.7527 9.18088 19.7399L8.60715 19.4018C8.5689 19.3826 8.5434 19.3443 8.53065 19.3061L8.40953 18.834C8.39041 18.751 8.44141 18.6617 8.52428 18.6426C8.60715 18.6234 8.69639 18.6745 8.71552 18.7574L8.82389 19.1657L9.34024 19.4656C9.41674 19.5102 9.44224 19.6059 9.39762 19.6825C9.37212 19.7271 9.32112 19.759 9.26375 19.759Z" fill="white"/>
<path d="M10.0032 19.1785C9.99042 19.1785 9.97767 19.1785 9.97129 19.1721L9.16808 18.9934C9.12983 18.9871 9.09796 18.9615 9.07883 18.936L8.67085 18.4065C8.61985 18.3363 8.6326 18.2342 8.70272 18.1832C8.77285 18.1322 8.87484 18.1449 8.92584 18.2151L9.29557 18.7L10.0414 18.8658C10.1243 18.885 10.1817 18.9679 10.1625 19.0572C10.1434 19.1274 10.0797 19.1785 10.0032 19.1785Z" fill="white"/>
<path d="M10.3474 18.5277C10.341 18.5277 10.341 18.5277 10.3346 18.5277L9.48041 18.4703C9.43578 18.4703 9.39754 18.4448 9.36566 18.4129L8.97681 17.9344C8.91943 17.8642 8.93218 17.7685 9.0023 17.7111C9.07243 17.6537 9.16805 17.6664 9.22542 17.7366L9.56965 18.1641L10.3537 18.2151C10.443 18.2215 10.5067 18.298 10.5004 18.3874C10.5004 18.4639 10.4302 18.5277 10.3474 18.5277Z" fill="white"/>
<path d="M10.6406 17.8515C10.6406 17.8515 10.6343 17.8515 10.6406 17.8515L9.7673 17.8196C9.73542 17.8196 9.70993 17.8068 9.68443 17.7941L9.1107 17.3985C9.04058 17.3475 9.02145 17.2518 9.07245 17.1752C9.12345 17.105 9.21907 17.0859 9.29557 17.1369L9.83104 17.507L10.647 17.5389C10.7363 17.5452 10.8064 17.6154 10.8 17.7047C10.7936 17.7813 10.7235 17.8515 10.6406 17.8515Z" fill="white"/>
<path d="M9.79916 17.137C9.76729 17.137 9.74179 17.1306 9.71629 17.1114L9.23181 16.8052C9.15531 16.7605 9.13619 16.6585 9.18081 16.5819C9.22544 16.5053 9.32743 16.4862 9.39755 16.5309L9.83741 16.8116L10.7426 16.7223C10.8319 16.7159 10.9084 16.7797 10.9147 16.8626C10.9211 16.9519 10.8574 17.0285 10.7745 17.0349L9.81828 17.1306C9.81191 17.137 9.80553 17.137 9.79916 17.137Z" fill="white"/>
<path d="M10.0924 16.4097C10.0796 16.4097 10.0605 16.4097 10.0478 16.4033L9.31467 16.1991C9.2318 16.1736 9.18081 16.0843 9.20631 16.0014C9.2318 15.9184 9.32105 15.8674 9.40392 15.8929L10.0924 16.0907L10.7745 15.8993C10.8574 15.8738 10.9466 15.9248 10.9721 16.0077C10.9976 16.0907 10.9466 16.18 10.8637 16.2055L10.1434 16.4097C10.1243 16.4097 10.1051 16.4097 10.0924 16.4097Z" fill="white"/>
<path d="M14.5739 19.7208C14.5038 19.7208 14.44 19.6761 14.4209 19.6059C14.3954 19.523 14.4464 19.4337 14.5293 19.4081L15.1795 19.2168L15.2241 18.7319C15.2305 18.6426 15.3134 18.5788 15.3962 18.5915C15.4855 18.5979 15.5492 18.6808 15.5365 18.7638L15.4791 19.3571C15.4727 19.4209 15.4281 19.4783 15.3644 19.4975L14.6121 19.7144C14.6058 19.7208 14.593 19.7208 14.5739 19.7208Z" fill="white"/>
<path d="M13.8854 19.1785C13.8153 19.1785 13.7515 19.1338 13.7324 19.0572C13.7069 18.9743 13.7579 18.885 13.8471 18.8595L14.6504 18.6426L15.0328 18.2024C15.0902 18.1386 15.1922 18.1258 15.256 18.1832C15.3197 18.2406 15.3324 18.3427 15.2751 18.4065L14.8607 18.885C14.8416 18.9105 14.8097 18.9296 14.7842 18.936L13.93 19.1657C13.9109 19.1721 13.8981 19.1785 13.8854 19.1785Z" fill="white"/>
<path d="M13.5539 18.4704C13.471 18.4704 13.4009 18.4066 13.3945 18.3236C13.3882 18.2343 13.4519 18.1578 13.5412 18.1514L14.44 18.094L14.7396 17.7303C14.797 17.6601 14.899 17.6538 14.9627 17.7112C15.0329 17.7686 15.0392 17.8707 14.9819 17.9345L14.6376 18.3492C14.6121 18.3811 14.5675 18.4066 14.5229 18.4066L13.5539 18.4704C13.5539 18.4704 13.5603 18.4704 13.5539 18.4704Z" fill="white"/>
<path d="M14.1403 17.8515H13.3052C13.216 17.8515 13.1459 17.7813 13.1459 17.692C13.1459 17.6026 13.216 17.5325 13.3052 17.5325H14.0893L14.6312 17.1305C14.7013 17.0795 14.8033 17.0923 14.8543 17.1624C14.9053 17.2326 14.8925 17.3347 14.8224 17.3857L14.2359 17.8196C14.2041 17.8387 14.1722 17.8515 14.1403 17.8515Z" fill="white"/>
<path d="M14.1276 17.1369C14.1213 17.1369 14.1085 17.1369 14.1021 17.1369L13.1906 16.9838C13.1013 16.971 13.0439 16.8881 13.0631 16.7987C13.0758 16.7094 13.1587 16.652 13.2479 16.6711L14.0958 16.8179L14.491 16.5435C14.5611 16.4925 14.6631 16.5116 14.7141 16.5818C14.7651 16.652 14.746 16.7541 14.6759 16.8051L14.2296 17.1114C14.1914 17.1241 14.1595 17.1369 14.1276 17.1369Z" fill="white"/>
<path d="M13.0375 16.1097C13.0375 16.1097 13.7323 16.3905 13.9299 16.3841C13.9299 16.3841 13.4518 16.4862 13.1204 16.282C13.1267 16.282 13.0184 16.231 13.0375 16.1097Z" fill="white"/>
<path d="M17.7485 2.5718C18.1674 2.5718 18.5071 2.2319 18.5071 1.8126C18.5071 1.39331 18.1674 1.05341 17.7485 1.05341C17.3295 1.05341 16.9899 1.39331 16.9899 1.8126C16.9899 2.2319 17.3295 2.5718 17.7485 2.5718Z" fill="white"/>
</svg>
