<svg width="24" height="24" viewBox="0 0 24 24" fill="none" xmlns="http://www.w3.org/2000/svg">
<path fill-rule="evenodd" clip-rule="evenodd" d="M12 23C18.0751 23 23 18.0751 23 12C23 5.92487 18.0751 1 12 1C5.92487 1 1 5.92487 1 12C1 18.0751 5.92487 23 12 23ZM11.3594 12.6117L10.0822 11.3634H6.04193V12.6117H10.487L6.04193 17.0374V17.9541H6.93306L11.3594 13.5735V17.9291H12.6326V13.8819L11.3594 12.6117ZM11.3594 12.6117V12.6316L11.3393 12.6117H11.3594ZM12.6326 10.476V6.04596H11.3594V10.0932L12.6326 11.3634V11.3183L13.1296 11.8128L13.1359 11.8065L13.9598 12.6117H18V11.3634H13.5809L18 6.96276V6.04596H17.109L12.6326 10.476Z" fill="white"/>
</svg>
