<svg width="24" height="24" viewBox="0 0 24 24" fill="none" xmlns="http://www.w3.org/2000/svg">
<circle cx="12" cy="12" r="12" fill="#141414"/>
<path d="M11.2115 11.9319H6.35297C5.74223 11.9319 5.25 12.4222 5.25 13.0304C5.25 14.1108 6.38032 14.828 7.36479 14.365L10.619 12.9124C10.7284 12.867 10.856 12.9124 10.8925 13.0304V13.0395C10.9289 13.1484 10.8834 13.2665 10.7831 13.3119C9.908 13.6841 6.28005 15.2365 6.28005 15.2365C5.6602 15.5089 5.25 16.1263 5.25 16.7981V17.1703C5.25 17.9783 5.90631 18.632 6.71759 18.632H10.9745C11.6764 18.632 12.2233 18.0237 12.1504 17.3246L11.7402 13.3482C11.7311 13.2302 11.8222 13.1303 11.9407 13.1394C12.041 13.1394 12.1231 13.2211 12.1322 13.3209L12.4056 17.4063C12.4786 18.169 13.1258 18.75 13.8915 18.75H14.247C14.8942 18.75 15.3682 17.9057 15.0309 17.3519L14.3655 16.5439C14.1831 16.2534 14.247 15.8721 14.5113 15.6451L14.5933 15.5725C14.8577 15.3455 15.2679 15.4272 15.432 15.7359L16.6352 18.0146C16.8722 18.4686 17.3371 18.75 17.8476 18.75H17.8658C18.3489 18.75 18.75 18.3596 18.75 17.8694V13.557C18.75 13.0032 18.3033 12.5583 17.7473 12.5583H14.5933C14.5022 12.5583 14.4201 12.4857 14.4201 12.3858C14.4201 12.2951 14.4931 12.2133 14.5933 12.2133H17.3553C18.2304 12.2133 18.8594 11.3781 18.6133 10.5429L18.6041 10.5066C18.3398 9.62592 17.2733 9.28093 16.5441 9.84381L13.2716 12.3677C13.2078 12.4131 13.1258 12.3949 13.0802 12.3314C13.0437 12.2769 13.0619 12.2043 13.1075 12.168L18.2395 8.06439C18.5586 7.81019 18.7409 7.42888 18.7409 7.02034V6.96587C18.7409 6.53009 18.5677 6.1034 18.2578 5.79472L18.2486 5.78564C17.9205 5.44973 17.4738 5.25908 16.9998 5.25908C16.2706 5.25908 15.1494 5.25908 14.3381 5.25908C13.7274 5.25908 13.1987 5.65854 13.0255 6.23958L12.0866 9.3808C12.0684 9.43527 12.0137 9.47158 11.9499 9.47158C11.8769 9.46251 11.8222 9.39895 11.8314 9.32633L12.2416 6.68443C12.3601 5.93998 11.7767 5.25908 11.0201 5.25908H10.3182C9.2608 5.25908 8.63183 6.44839 9.24257 7.31994L11.5579 10.6518C11.6035 10.7335 11.5761 10.8334 11.4941 10.8788C11.4212 10.9151 11.3391 10.8969 11.2935 10.8334L7.63825 5.84919C7.36479 5.47697 6.92724 5.25 6.46236 5.25C5.79693 5.25 5.25912 5.78564 5.25912 6.44839V6.79337C5.25912 7.51059 5.6602 8.16425 6.29828 8.49109L9.20611 9.95275C9.47046 10.0889 9.57073 10.4158 9.40665 10.67C9.25169 10.9151 8.96911 10.906 8.72299 10.7517L6.6629 9.71671C6.0157 9.38988 5.25 9.86197 5.25 10.5792C5.25 11.1148 5.68754 11.5506 6.22535 11.5506H11.2115C11.3209 11.5506 11.4029 11.6414 11.4029 11.7503C11.3938 11.8502 11.3118 11.9319 11.2115 11.9319Z" fill="url(#paint0_linear_542_1967)"/>
<path d="M11.7402 13.3481C11.7391 13.3339 11.7395 13.3199 11.7411 13.3064L11.8308 9.35217C11.8301 9.34373 11.8302 9.33507 11.8313 9.32628L11.8308 9.35217C11.8357 9.41349 11.8857 9.46356 11.9498 9.47154C12.0137 9.47154 12.0683 9.43522 12.0866 9.38075L13.0255 6.23953C13.1987 5.65849 13.7274 5.25903 14.3381 5.25903H16.9998C17.4738 5.25903 17.9205 5.44969 18.2486 5.7856L18.2577 5.79468C18.5677 6.10335 18.7409 6.53005 18.7409 6.96582V7.0203C18.7409 7.42884 18.5586 7.81014 18.2395 8.06434L13.1075 12.1679C13.0619 12.2042 13.0437 12.2768 13.0802 12.3313C13.1257 12.3949 13.2078 12.413 13.2716 12.3676L16.544 9.84376C17.2733 9.28089 18.3398 9.62588 18.6041 10.5065L18.6132 10.5428C18.8594 11.3781 18.2304 12.2133 17.3553 12.2133H14.5933C14.4931 12.2133 14.4201 12.295 14.4201 12.3858C14.4201 12.4857 14.5022 12.5583 14.5933 12.5583H17.7473C18.3033 12.5583 18.75 13.0031 18.75 13.5569V17.8693C18.75 18.3596 18.3489 18.7499 17.8658 18.7499H17.8475C17.3371 18.7499 16.8722 18.4685 16.6352 18.0146L15.432 15.7358C15.2679 15.4271 14.8577 15.3454 14.5933 15.5724L14.5113 15.645C14.2469 15.872 14.1831 16.2533 14.3654 16.5438L15.0309 17.3518C15.3681 17.9056 14.8941 18.7499 14.2469 18.7499H13.8914C13.1257 18.7499 12.4785 18.1689 12.4056 17.4063L12.1322 13.3209C12.123 13.221 12.041 13.1393 11.9407 13.1393C11.8365 13.1313 11.7534 13.2076 11.7411 13.3064L11.7402 13.3481Z" fill="url(#paint1_radial_542_1967)"/>
<path d="M17.8476 18.7498C17.3371 18.7498 16.8722 18.4684 16.6352 18.0145L16.0336 16.8751L18.75 14.7V17.8692C18.75 18.3594 18.3489 18.7498 17.8658 18.7498H17.8476Z" fill="url(#paint2_radial_542_1967)"/>
<defs>
<linearGradient id="paint0_linear_542_1967" x1="18.75" y1="12" x2="5.25" y2="12" gradientUnits="userSpaceOnUse">
<stop stop-color="#4E296D"/>
<stop offset="0.660326" stop-color="#593075"/>
<stop offset="0.849566" stop-color="#DFBD13"/>
<stop offset="0.912646" stop-color="#E0BE11"/>
<stop offset="1" stop-color="#4E296D"/>
</linearGradient>
<radialGradient id="paint1_radial_542_1967" cx="0" cy="0" r="1" gradientUnits="userSpaceOnUse" gradientTransform="translate(15.375 -1.83753) rotate(88.9949) scale(19.2404 3.37552)">
<stop stop-color="#E0BE13"/>
<stop offset="0.315642" stop-color="#E0BE13"/>
<stop offset="1" stop-color="#583074"/>
</radialGradient>
<radialGradient id="paint2_radial_542_1967" cx="0" cy="0" r="1" gradientUnits="userSpaceOnUse" gradientTransform="translate(24.4875 17.0624) rotate(135) scale(10.5005 5.8581)">
<stop offset="0.0959711" stop-color="#E0BE13"/>
<stop offset="0.448735" stop-color="#E0BE13"/>
<stop offset="1" stop-color="#583074"/>
</radialGradient>
</defs>
</svg>
