<svg width="24" height="24" viewBox="0 0 24 24" fill="none" xmlns="http://www.w3.org/2000/svg">
<path d="M12 23C18.0751 23 23 18.0751 23 12C23 5.92487 18.0751 1 12 1C5.92487 1 1 5.92487 1 12C1 18.0751 5.92487 23 12 23Z" fill="#FF0420"/>
<path d="M8.79238 14.9217C8.13678 14.9217 7.59998 14.7677 7.18198 14.4597C6.76838 14.1473 6.56158 13.6985 6.56158 13.1221C6.56158 12.9989 6.57478 12.8537 6.60118 12.6777C6.67158 12.2817 6.77278 11.8065 6.90478 11.2477C7.27878 9.73409 8.24678 8.97729 9.80438 8.97729C10.2268 8.97729 10.6096 9.04769 10.944 9.19289C11.2784 9.32929 11.5424 9.54049 11.736 9.82209C11.9296 10.0993 12.0264 10.4293 12.0264 10.8121C12.0264 10.9265 12.0132 11.0717 11.9868 11.2477C11.9032 11.7361 11.8064 12.2157 11.6876 12.6777C11.494 13.4301 11.164 13.9977 10.6888 14.3717C10.218 14.7413 9.58438 14.9217 8.79238 14.9217ZM8.91118 13.7337C9.21918 13.7337 9.47878 13.6413 9.69438 13.4609C9.91438 13.2805 10.0728 13.0033 10.1652 12.6249C10.2928 12.1057 10.3896 11.6569 10.4556 11.2697C10.4776 11.1553 10.4908 11.0365 10.4908 10.9133C10.4908 10.4117 10.2312 10.1609 9.70758 10.1609C9.39958 10.1609 9.13558 10.2533 8.91558 10.4337C8.69998 10.6141 8.54598 10.8913 8.45358 11.2697C8.35238 11.6393 8.25558 12.0881 8.15438 12.6249C8.13238 12.7349 8.11918 12.8493 8.11918 12.9725C8.11478 13.4829 8.38318 13.7337 8.91118 13.7337Z" fill="white"/>
<path d="M12.4092 14.8424C12.3476 14.8424 12.3036 14.8248 12.2684 14.7852C12.242 14.7412 12.2332 14.6928 12.242 14.6356L13.3816 9.26759C13.3904 9.20599 13.4212 9.15759 13.474 9.11799C13.5224 9.07839 13.5752 9.06079 13.6324 9.06079H15.828C16.4396 9.06079 16.928 9.18839 17.2976 9.43919C17.6716 9.69439 17.8608 10.0596 17.8608 10.5392C17.8608 10.6756 17.8432 10.8208 17.8124 10.9704C17.676 11.604 17.3988 12.0704 16.9764 12.374C16.5628 12.6776 15.9952 12.8272 15.2736 12.8272H14.1604L13.782 14.6356C13.7688 14.6972 13.7424 14.7456 13.6896 14.7852C13.6412 14.8248 13.5884 14.8424 13.5312 14.8424H12.4092ZM15.3308 11.6876C15.564 11.6876 15.762 11.626 15.9336 11.4984C16.1096 11.3708 16.224 11.1904 16.2812 10.9528C16.2988 10.8604 16.3076 10.7768 16.3076 10.7064C16.3076 10.548 16.2592 10.4248 16.1668 10.3412C16.0744 10.2532 15.9116 10.2092 15.6872 10.2092H14.6972L14.3848 11.6876H15.3308Z" fill="white"/>
</svg>
