<svg width="24" height="24" viewBox="0 0 24 24" fill="none" xmlns="http://www.w3.org/2000/svg">
<path fill-rule="evenodd" clip-rule="evenodd" d="M12 23C18.0751 23 23 18.0751 23 12C23 5.92487 18.0751 1 12 1C5.92487 1 1 5.92487 1 12C1 18.0751 5.92487 23 12 23ZM9.95682 6.51299C10.7451 5.17943 12.7545 5.17943 13.5428 6.51299L18.2177 14.4218C18.9935 15.7342 18.0016 17.359 16.4248 17.359H10.2008C13.8525 15.1939 13.847 11.9379 13.4371 10.7298C13.3093 10.2873 12.9903 9.95429 12.6829 9.63327L12.6345 9.58268C12.7163 10.4345 11.9278 11.0163 11.0858 11.1925L6.64102 12.2063L9.95682 6.51299ZM7.26399 17.359C6.12928 17.2646 5.39497 16.2801 5.52843 15.1787C6.64141 14.3771 8.05163 13.9744 9.50616 13.9744C9.70599 13.9744 9.90384 13.9832 10.0912 13.9916H10.0912H10.0912H10.0913C10.2694 13.9996 10.438 14.0071 10.5897 14.0063C8.91671 14.5097 7.84692 15.513 7.26399 17.359Z" fill="white"/>
</svg>
