<svg width="24" height="24" viewBox="0 0 24 24" fill="none" xmlns="http://www.w3.org/2000/svg">
<path fill-rule="evenodd" clip-rule="evenodd" d="M19.0328 1H4.78688V3.3065H2.2623V5.61287H1V18.2096H2.2623V20.6936H4.78688V23H19.0328V20.6936H21.5574V18.2097H23V5.61287H21.5574V3.3065H19.0328V1ZM6.38926 14.7934C5.90268 15.6225 6.1859 16.6796 7.02185 17.1545C7.85779 17.6293 8.9299 17.3421 9.41647 16.5129L13.6104 9.36601C14.097 8.53683 13.8137 7.47972 12.9778 7.00487C12.1419 6.53002 11.0697 6.81726 10.5832 7.64643L6.38926 14.7934ZM10.0164 16.0272L10.6094 17.0376C10.7775 17.3242 11.148 17.4234 11.4369 17.2593C11.7258 17.0952 11.8237 16.7299 11.6555 16.4434L10.7139 14.8386L10.0164 16.0272ZM14.6643 16.5853L12.1804 12.3524L13.9046 9.41405C14.0219 9.21413 14.0938 9.00067 14.1234 8.78524L17.6915 14.8657C18.1741 15.6882 17.8877 16.7398 17.0518 17.2147C16.2158 17.6895 15.1469 17.4077 14.6643 16.5853Z" fill="white"/>
</svg>
