<svg width="24" height="24" viewBox="0 0 24 24" fill="none" xmlns="http://www.w3.org/2000/svg">
<path d="M22.3747 8.35266C22.7453 9.2299 22.9074 10.1071 23 11.0536C22.7684 11.0767 22.5832 11.1113 22.3979 11.1113C20.0011 11.1113 17.6042 11.0998 15.2074 11.1229C14.6747 11.1229 14.2579 10.9844 13.9337 10.5573C13.7832 10.3611 13.6211 10.1879 13.4474 10.0148C13.0653 9.65697 12.7642 9.65697 12.3705 10.0148C12.1158 10.2456 11.8958 10.4996 11.6526 10.7535C11.4211 10.9959 11.1547 11.1229 10.8074 11.1229C7.63474 11.1229 4.45053 11.1229 1.27789 11.1113C1.20842 11.1113 1.13895 11.0767 1 11.0421C1.01158 10.1187 1.25474 9.24144 1.57895 8.34112C1.86842 8.34112 2.13474 8.34112 2.40105 8.34112C5.52737 8.34112 8.65368 8.32958 11.7916 8.35266C12.4632 8.3642 12.9842 8.16798 13.3779 7.63702C14.0379 6.75979 14.5126 6.79442 15.1379 7.67165C15.52 8.21415 16.0063 8.3642 16.6547 8.34112C18.3105 8.30649 19.9779 8.32958 21.6453 8.32958C21.8884 8.35266 22.12 8.35266 22.3747 8.35266Z" fill="white"/>
<path d="M22.9304 14.0547C22.5831 15.0589 22.2936 15.9245 21.9925 16.8133C21.6683 16.8133 21.4252 16.8133 21.182 16.8133C17.9283 16.8133 14.6862 16.8018 11.4325 16.8249C10.7725 16.8249 10.2747 16.6517 9.84623 16.1323C9.05886 15.1974 8.85044 15.1858 8.02833 16.1208C7.56518 16.6402 7.07886 16.8595 6.37255 16.8364C5.00623 16.7787 3.63991 16.8133 2.2736 16.8133C2.22728 16.8133 2.18097 16.7902 2.06518 16.7672C1.57886 15.9938 1.37044 15.0704 1.1157 14.0547C1.45149 14.0547 1.70623 14.0547 1.97255 14.0547C3.95255 14.0547 5.93255 14.0431 7.91255 14.0662C8.52623 14.0777 9.01255 13.8931 9.38307 13.4198C9.52202 13.2467 9.67255 13.0851 9.82307 12.935C10.182 12.5887 10.4599 12.6003 10.842 12.9466C10.8768 12.9812 10.9115 13.0158 10.9462 13.0504C11.9999 14.2278 11.7683 14.0431 13.3431 14.0547C16.2262 14.0662 19.1094 14.0547 21.9925 14.0547C22.2473 14.0547 22.5136 14.0547 22.9304 14.0547Z" fill="white"/>
<path d="M20.661 5.42085C20.0705 5.42085 19.4916 5.40931 18.901 5.42085C18.5074 5.43239 18.1947 5.28234 17.9516 4.97069C17.7779 4.76292 17.6042 4.55516 17.4189 4.37048C17.0368 3.98957 16.6663 3.97803 16.2726 4.34739C16.0063 4.58978 15.7747 4.90143 15.4968 5.12074C15.3 5.27079 15.0221 5.42085 14.7905 5.42085C11.0042 5.43239 7.2063 5.43239 3.41999 5.42085C3.38525 5.42085 3.33894 5.38622 3.3042 5.36314C4.72841 3.03154 8.29473 0.988506 11.8842 1.00005C15.5431 1.01159 18.4726 2.46595 20.7537 5.24771C20.7074 5.29388 20.6842 5.36314 20.661 5.42085Z" fill="white"/>
<path d="M3.96417 19.5143C4.51996 19.4681 4.84417 19.1103 5.1568 18.7525C5.27259 18.6255 5.3768 18.487 5.50417 18.3716C5.82838 18.0715 6.14102 18.083 6.4768 18.3831C6.51154 18.4178 6.54628 18.4524 6.58101 18.487C7.62312 19.6297 7.22944 19.4681 8.8968 19.4681C12.3473 19.4797 15.7979 19.4681 19.2368 19.4797C19.4684 19.4797 19.7115 19.4797 20.001 19.4797C16.1336 24.0043 8.2947 24.3275 3.96417 19.5143Z" fill="white"/>
</svg>
