<svg width="24" height="24" viewBox="0 0 24 24" fill="none" xmlns="http://www.w3.org/2000/svg">
<path d="M11.999 1C9.82338 1.0002 7.69666 1.64555 5.88781 2.85445C4.07895 4.06335 2.66921 5.7815 1.83686 7.79162C1.0045 9.80174 0.786923 12.0135 1.21163 14.1473C1.63634 16.2811 2.68426 18.241 4.22288 19.7792C5.76149 21.3174 7.72169 22.3648 9.85558 22.7889C11.9895 23.2131 14.2012 22.9949 16.2111 22.162C18.221 21.3291 19.9388 19.9189 21.1472 18.1097C22.3556 16.3006 23.0004 14.1737 23 11.998C23 10.5535 22.7154 9.12311 22.1625 7.78858C21.6097 6.45404 20.7993 5.2415 19.7777 4.2202C18.7561 3.1989 17.5434 2.38885 16.2087 1.83632C14.874 1.2838 13.4435 0.999611 11.999 1ZM17.7112 16.9907C16.969 17.8218 16.1072 18.3074 15.1448 18.4298C13.5566 18.6272 12.4353 17.9126 11.5341 17.3332C10.7583 16.8396 10.1858 16.5623 9.47506 16.5623C9.34301 16.5618 9.2111 16.5704 9.08022 16.5879C8.60643 16.6452 8.14941 16.8781 7.72398 17.273C7.41206 17.5753 7.14275 17.9186 6.92346 18.2936L5.37671 17.5227C5.63539 17.064 5.94177 16.6339 6.29074 16.2395C7.04882 15.3867 7.9135 14.8931 8.85715 14.7727C10.4088 14.5753 11.5015 15.2771 12.4689 15.897C13.3859 16.4843 14.0156 16.7646 14.9168 16.6491C15.3817 16.5889 15.8417 16.353 16.2731 15.9582C16.5882 15.6577 16.8608 15.3157 17.0835 14.9415L18.6233 15.7075C18.3651 16.166 18.0594 16.5961 17.7112 16.9907ZM17.7112 12.3889C16.969 13.22 16.1072 13.7037 15.1448 13.8291C13.5566 14.0265 12.4353 13.3089 11.5341 12.7314C10.7583 12.232 10.1858 11.9576 9.47506 11.9576C9.34303 11.9584 9.21117 11.9673 9.08022 11.9842C8.60643 12.0444 8.15237 12.2803 7.72398 12.6683C7.41252 12.971 7.14326 13.3143 6.92346 13.6889L5.37671 12.9209C5.63506 12.4596 5.94144 12.0268 6.29074 11.6298C7.04882 10.778 7.9135 10.2864 8.85715 10.167C10.4088 9.96958 11.5015 10.6684 12.4689 11.2873C13.3859 11.8796 14.0156 12.155 14.9168 12.0405C15.3817 11.9822 15.8417 11.7443 16.2731 11.3495C16.5884 11.0504 16.8611 10.7093 17.0835 10.3358L18.6272 11.1037C18.3689 11.565 18.0618 11.9972 17.7112 12.3929V12.3889ZM17.7112 7.78517C16.969 8.61531 16.1072 9.10194 15.1448 9.22433C13.5566 9.42175 12.4353 8.70711 11.5341 8.1267C10.7583 7.63316 10.1858 7.3558 9.47506 7.3558C9.34298 7.35516 9.21102 7.36407 9.08022 7.38245C8.60643 7.44266 8.15237 7.67265 7.72398 8.06649C7.41252 8.36922 7.14326 8.71252 6.92346 9.08713L5.37572 8.31622C5.63538 7.85661 5.94167 7.42495 6.28976 7.02809C7.04981 6.17624 7.91251 5.68566 8.85616 5.56227C10.4078 5.36486 11.5035 6.06667 12.4679 6.68557C13.3849 7.27782 14.0146 7.55321 14.9158 7.43871C15.3807 7.3785 15.8407 7.14259 16.2721 6.74776C16.5868 6.44733 16.8594 6.10565 17.0825 5.73205L18.6263 6.50197C18.3673 6.96195 18.0606 7.39338 17.7112 7.78912V7.78517Z" fill="white"/>
</svg>
