<svg width="22" height="22" viewBox="0 0 22 22" fill="none" xmlns="http://www.w3.org/2000/svg">
<path fill-rule="evenodd" clip-rule="evenodd" d="M22 11C22 17.0751 17.0751 22 11 22C4.92487 22 0 17.0751 0 11C0 4.92487 4.92487 0 11 0C17.0751 0 22 4.92487 22 11ZM19.4884 8.01581C19.7916 8.73355 19.9242 9.45129 20 10.2257C19.9368 10.232 19.8779 10.2393 19.8218 10.2463L19.8218 10.2463C19.7095 10.2603 19.6084 10.2729 19.5074 10.2729C19.0171 10.2729 18.5269 10.2723 18.0367 10.2717H18.0364C16.5657 10.27 15.0949 10.2682 13.6242 10.2824C13.1884 10.2824 12.8474 10.169 12.5821 9.8196C12.4589 9.65905 12.3263 9.5174 12.1842 9.37574C11.8716 9.08297 11.6253 9.08297 11.3032 9.37574C11.1555 9.50952 11.0222 9.65277 10.8862 9.7988C10.8302 9.85893 10.7738 9.91954 10.7158 9.98015C10.5263 10.1785 10.3084 10.2824 10.0242 10.2824C7.42842 10.2824 4.82316 10.2824 2.22737 10.2729C2.19224 10.2729 2.15711 10.2621 2.10856 10.2471C2.07855 10.2379 2.04342 10.2271 2 10.2162C2.00947 9.46073 2.20842 8.743 2.47368 8.00637H3.14632C3.78519 8.00637 4.42406 8.00578 5.06309 8.00519H5.06353H5.06397H5.06442H5.06466C6.9836 8.00342 8.90387 8.00165 10.8295 8.01581C11.3789 8.02526 11.8053 7.86471 12.1274 7.43029C12.6674 6.71255 13.0558 6.74089 13.5674 7.45862C13.88 7.90249 14.2779 8.02526 14.8084 8.00637C15.7759 7.98614 16.7481 7.98999 17.7218 7.99384C18.1116 7.99538 18.5016 7.99693 18.8916 7.99693C19.0905 8.01581 19.28 8.01581 19.4884 8.01581ZM19.3624 14.386L19.3626 14.3853L19.3628 14.3848C19.5456 13.8434 19.7312 13.2938 19.9431 12.6811H19.1758C18.3894 12.6811 17.6031 12.6822 16.8168 12.6832C15.2442 12.6853 13.6715 12.6874 12.0989 12.6811C11.9236 12.6798 11.7757 12.6815 11.6487 12.683C11.3019 12.6869 11.1118 12.6891 10.9483 12.6241C10.7498 12.5451 10.5908 12.3669 10.2386 11.9723L10.2386 11.9723L10.1379 11.8595L10.0526 11.7745C9.73997 11.4912 9.5126 11.4818 9.21891 11.7651C9.09576 11.8878 8.9726 12.0201 8.85891 12.1617C8.55576 12.5489 8.15786 12.7 7.65576 12.6906C6.44081 12.6764 5.22586 12.6782 4.01091 12.68H4.01069C3.60572 12.6805 3.20074 12.6811 2.79576 12.6811H2.0947L2.13729 12.8516C2.32767 13.6156 2.50104 14.3113 2.87155 14.9005C2.91431 14.909 2.9455 14.9175 2.97032 14.9243C3.0005 14.9325 3.02128 14.9382 3.04207 14.9382C3.34695 14.9382 3.65183 14.9361 3.95672 14.934C4.76973 14.9284 5.58274 14.9228 6.39576 14.9571C6.97365 14.976 7.37155 14.7966 7.75049 14.3716C8.42312 13.6066 8.59365 13.6161 9.23786 14.381C9.58839 14.806 9.99576 14.9477 10.5358 14.9477C12.5319 14.9335 14.5227 14.9353 16.5162 14.937H16.5164H16.5166L16.5189 14.9371C17.1831 14.9376 17.8475 14.9382 18.5126 14.9382H19.1758C19.2378 14.7552 19.2992 14.5733 19.3609 14.3905L19.3624 14.386ZM17.6046 5.61495H17.6046C17.2856 5.61285 16.9681 5.61077 16.6463 5.61706C16.3242 5.6265 16.0684 5.50373 15.8695 5.24874L15.8694 5.24872C15.7273 5.07874 15.5852 4.90876 15.4337 4.75766C15.121 4.44601 14.8179 4.43657 14.4958 4.73877C14.4024 4.82377 14.3142 4.91917 14.2261 5.01457L14.2261 5.01458C14.1085 5.14178 13.991 5.26898 13.861 5.37152C13.7 5.49429 13.4726 5.61706 13.2831 5.61706C10.1853 5.6265 7.07789 5.6265 3.97999 5.61706C3.95502 5.61706 3.92273 5.59518 3.89598 5.57706L3.88525 5.56984C5.05052 3.66217 7.96841 1.9906 10.9053 2.00004C13.8989 2.00948 16.2958 3.19942 18.1621 5.4754C18.1289 5.50853 18.1102 5.55618 18.0933 5.59926L18.0863 5.61706C17.9249 5.61706 17.7646 5.616 17.6046 5.61495ZM5.40113 16.5248C5.14534 16.8176 4.88008 17.1104 4.42534 17.1481C7.9685 21.0863 14.3822 20.8218 17.5464 17.1198H16.9211C15.5144 17.1151 14.1052 17.1151 12.6949 17.1151C11.2844 17.1151 9.87278 17.1151 8.46113 17.1104C7.76299 17.1104 7.50648 17.145 7.30816 17.0535C7.11894 16.9662 6.98269 16.7641 6.56639 16.3076L6.48113 16.2226C6.20639 15.9771 5.9506 15.9677 5.68534 16.2132C5.61586 16.2762 5.55481 16.3475 5.49376 16.4189C5.46323 16.4545 5.43271 16.4902 5.40113 16.5248Z" fill="white"/>
</svg>
