<svg width="24" height="24" viewBox="0 0 24 24" fill="none" xmlns="http://www.w3.org/2000/svg">
<path fill-rule="evenodd" clip-rule="evenodd" d="M12 23C18.0751 23 23 18.0751 23 12C23 5.92487 18.0751 1 12 1C5.92487 1 1 5.92487 1 12C1 18.0751 5.92487 23 12 23ZM16.6672 11.9468C16.7551 12.2405 16.8016 12.5473 16.8016 12.8629C16.8016 13.9298 16.2693 14.8963 15.4078 15.598C15.1743 15.3905 14.9117 15.2045 14.6251 15.044C15.4239 14.473 15.885 13.6628 15.885 12.8629C15.885 12.6747 15.8595 12.486 15.81 12.3C14.9323 13.4291 13.5522 14.1569 12.0001 14.1569C10.4479 14.1569 9.0678 13.4291 8.19006 12.3C8.14064 12.486 8.11513 12.6747 8.11513 12.8629C8.11513 13.6628 8.57617 14.4729 9.37495 15.0439C9.08831 15.2044 8.82569 15.3904 8.59225 15.5979C7.73072 14.8962 7.19847 13.9298 7.19847 12.8629C7.19847 12.5473 7.24504 12.2405 7.33294 11.9467C6.55835 12.5451 6.18575 13.2367 6.18575 13.8982C6.18575 14.6706 6.69366 15.4839 7.75627 16.142C7.83094 16.1882 7.90787 16.2333 7.98696 16.2772C7.84596 16.4811 7.72852 16.6968 7.63759 16.922C6.29653 16.1795 5.45241 15.0999 5.45241 13.8982C5.45241 12.749 6.22435 11.7115 7.46463 10.9736C7.29219 10.4845 7.19847 9.95895 7.19847 9.41177C7.19847 9.32135 7.20103 9.23153 7.20607 9.14236C6.77857 9.3351 6.38238 9.55208 6.0225 9.78918C4.52604 10.7751 3.75 12.0333 3.75 13.2941C3.75 14.5548 4.52604 15.8131 6.0225 16.799C6.4521 17.082 6.93345 17.3364 7.45803 17.5551C7.43073 17.7169 7.41663 17.8822 7.41663 18.05C7.41663 18.2164 7.43048 18.3802 7.45732 18.5408C4.695 17.5004 2.83333 15.5405 2.83333 13.2941C2.83333 11.0653 4.66592 9.11849 7.39251 8.07204C7.97759 6.10376 9.819 4.66667 12.0001 4.66667C14.1811 4.66667 16.0225 6.10378 16.6076 8.07209C19.3341 9.11855 21.1667 11.0653 21.1667 13.2941C21.1667 15.5405 19.305 17.5005 16.5426 18.5408C16.5694 18.3803 16.5833 18.2164 16.5833 18.05C16.5833 17.8822 16.5692 17.717 16.5419 17.5551C17.0665 17.3364 17.5479 17.082 17.9775 16.799C19.474 15.8131 20.25 14.5548 20.25 13.2941C20.25 12.0333 19.474 10.7751 17.9775 9.78918C17.6177 9.5521 17.2215 9.33514 16.794 9.14241C16.7991 9.23156 16.8016 9.32137 16.8016 9.41177C16.8016 9.95896 16.7079 10.4845 16.5355 10.9736C17.7757 11.7115 18.5477 12.749 18.5477 13.8982C18.5477 15.0999 17.7035 16.1796 16.3624 16.9221C16.2714 16.6969 16.154 16.4811 16.013 16.2773C16.0921 16.2334 16.1691 16.1882 16.2438 16.142C17.3064 15.4839 17.8143 14.6706 17.8143 13.8982C17.8143 13.2367 17.4417 12.5451 16.6672 11.9468ZM14.07 15.3738C14.3977 15.5267 14.6922 15.7143 14.9474 15.928C14.1339 16.4402 13.111 16.7453 12.0001 16.7453C10.889 16.7453 9.86617 16.4402 9.05258 15.9279C9.3078 15.7142 9.60236 15.5267 9.93006 15.3737C10.5104 15.6572 11.2101 15.8286 12.0001 15.8286C12.7899 15.8286 13.4897 15.6572 14.07 15.3738ZM8.13449 17.1714C8.22143 16.947 8.34076 16.7307 8.48922 16.5267C9.45713 16.956 10.6682 17.2198 12 17.2198C13.3318 17.2198 14.5428 16.956 15.5107 16.5268C15.6592 16.7307 15.7785 16.9471 15.8654 17.1714C14.7821 17.6629 13.4458 17.9531 12 17.9531C10.5542 17.9531 9.21781 17.6629 8.13449 17.1714ZM12 18.4166C13.4679 18.4166 14.834 18.174 16.0149 17.7575C16.0271 17.8544 16.0333 17.952 16.0333 18.05C16.0333 18.2882 15.9966 18.5239 15.9264 18.7528C14.7363 19.125 13.405 19.3333 12 19.3333C10.5949 19.3333 9.26367 19.125 8.07351 18.7528C8.00335 18.5239 7.96663 18.2881 7.96663 18.05C7.96663 17.952 7.97285 17.8544 7.98506 17.7575C9.16598 18.174 10.5321 18.4166 12 18.4166Z" fill="white"/>
</svg>
