<svg width="24" height="24" viewBox="0 0 24 24" fill="none" xmlns="http://www.w3.org/2000/svg">
<path d="M7.55918 16.7419C7.55918 16.7419 9.98195 18.9346 12.6586 18.0785C12.6586 18.0785 14.2811 17.7361 15.0317 16.5375L16.2458 16.6535C16.2458 16.6535 16.3838 20.1939 11.9025 20.3983C7.42121 20.6026 7.55918 16.7419 7.55918 16.7419Z" fill="#D3DDEE"/>
<path d="M9.95983 15.8305C9.84945 17.3991 9.44106 18.5203 9.11545 18.5976L9.25342 19.1886C9.76667 19.0671 10.1309 18.443 10.3682 17.2776C10.5283 16.4933 10.5724 15.7532 10.5724 15.72C10.5724 15.72 10.142 15.8471 9.95983 15.8305Z" fill="#D3DDEE"/>
<path d="M13.6685 16.2779C13.7955 17.2003 14.0825 17.7968 14.2425 17.8686L13.9831 18.421C13.5471 18.2166 13.2105 17.4047 13.067 16.2117" fill="#D5DEEE"/>
<path d="M6.92451 12.0416C6.73135 12.2073 5.99734 12.152 5.99734 12.152C6.07461 12.6933 6.35055 13.4003 6.35055 13.4003C6.4223 13.334 6.92451 12.0416 6.92451 12.0416Z" fill="#2E4668"/>
<path d="M15.3076 9.49534C14.8219 8.7497 13.4533 8.94301 13.4533 8.94301C11.483 9.1308 10.3903 10.5061 10.3903 10.5061C9.56799 11.6494 10.2247 11.9145 10.2247 11.9145C11.1243 12.0913 11.3175 11.2628 11.3175 11.2628C10.8704 11.2793 11.0139 10.9148 11.0139 10.9148C11.5658 9.76597 12.6585 9.4401 12.6585 9.4401L10.2578 14.052L12.3219 14.0851C13.7292 14.1128 14.3197 12.6325 14.3197 12.6325C14.7281 11.7267 13.7844 11.3788 13.7844 11.3788C15.8926 10.7381 15.3076 9.49534 15.3076 9.49534ZM12.9786 13.0523C12.4764 13.8642 12.0018 13.7261 12.0018 13.7261C11.7424 13.5936 11.9356 13.2677 11.9356 13.2677L12.6365 11.8427L12.6972 11.7157C12.6972 11.7157 12.8462 11.3622 13.2215 11.6273C13.6519 11.92 12.9786 13.0523 12.9786 13.0523ZM14.4577 9.83225C14.1873 10.9756 13.2325 11.1413 13.078 11.1468C12.9234 11.1523 13.0007 10.9921 13.0007 10.9921L13.8451 9.39039C13.9058 9.26336 14.0051 9.26888 14.0051 9.26888C14.6343 9.27441 14.4577 9.83225 14.4577 9.83225Z" fill="#2E4668"/>
<path d="M18.4478 13.1849C18.4478 13.1849 18.8838 13.196 19.0107 13.2567C19.0107 13.2567 19.3474 12.1355 19.3695 11.6163C19.3695 11.5887 19.0328 11.9312 18.7182 12.0361C18.7182 12.0361 18.5637 13.0027 18.4478 13.1849Z" fill="#2E4668"/>
<path d="M17.0626 16.648C16.7811 17.1174 16.5769 17.6145 16.2237 17.9791C16.4445 17.5704 16.61 17.123 16.7038 16.6535L16.0195 16.6701C15.5614 18.5756 13.834 19.9398 11.8638 19.9398C9.85496 19.9398 8.16068 18.5701 7.70814 16.6701C7.29974 16.3497 6.96309 16.2503 6.96309 16.2503C7.01276 16.659 7.1121 17.0512 7.25559 17.4267C7.06243 17.1119 6.88031 16.7805 6.70371 16.4326C6.64852 16.3276 6.59333 16.2172 6.54366 16.1067L6.04697 16.3442C6.10215 16.4547 6.15734 16.5706 6.21253 16.6811C7.6088 19.4262 9.50728 21.2102 11.8693 21.9724L11.9576 22L12.0459 21.9669C12.1839 21.9171 15.8153 20.6689 17.78 16.5651L17.0626 16.648ZM13.7347 20.3927C12.8682 21.0113 12.1729 21.3262 11.9411 21.4201C10.9587 21.0887 10.0647 20.564 9.25341 19.8515C10.0316 20.3375 10.9367 20.5971 11.8638 20.5971C12.7524 20.5971 13.5967 20.3541 14.3307 19.9343C14.1155 20.1055 13.9168 20.2602 13.7347 20.3927Z" fill="#2E4668"/>
<path opacity="0.94" d="M10.2303 8.95406C10.2303 8.95406 9.86604 9.20261 9.64529 9.09767C9.64529 9.09767 8.34285 8.5343 6.93002 9.32412C6.93002 9.32412 5.76555 10.0698 5.82074 11.0584C5.82074 11.0584 5.87041 11.8041 6.56026 11.5887C6.56026 11.5887 6.83068 11.5389 7.11766 11.1357C7.11766 11.1357 6.53267 10.9093 6.97969 10.1581C6.97969 10.1581 7.61436 8.99825 9.4135 9.41249C9.4135 9.41249 8.65742 10.0532 7.9786 11.2407C7.52606 12.036 7.45983 12.1575 6.90795 13.4555C6.90795 13.4555 6.72583 13.9857 6.28432 14.0796C6.28432 14.0796 5.24126 14.3448 4.68386 14.7756C4.68386 14.7756 3.76221 15.4604 4.13197 16.0293C4.13197 16.0293 4.63419 16.67 6.06909 15.7421C6.06909 15.7421 7.03488 15.1843 7.79648 14.0189C7.79648 14.0189 9.121 13.5163 9.75015 12.2956C9.75015 12.2956 9.63425 12.141 9.53491 12.1741C9.53491 12.1741 8.75676 13.4776 8.07794 13.5715C7.98964 13.5494 8.05035 13.461 8.05035 13.461C8.33181 13.1517 9.21482 10.8817 9.21482 10.8817C9.21482 10.8817 9.6177 9.78807 10.0647 9.51191C10.0647 9.51191 10.6497 9.51191 10.8318 9.19156C10.8429 9.20813 10.9643 8.75523 10.2303 8.95406ZM4.79423 15.9023C4.47414 15.1622 6.41125 14.4276 6.41125 14.4276C5.19159 16.4933 4.79423 15.9023 4.79423 15.9023Z" fill="#2E4668"/>
<path d="M9.143 7.60087C9.56795 7.49593 9.99842 7.41861 10.4234 7.35785C10.5227 7.57878 10.6441 7.77209 10.8042 7.88808L10.8097 8.07035C10.8097 8.07035 9.60107 8.1311 9.07126 8.41831C9.07126 8.41831 9.76111 8.49564 9.82182 8.58401C9.82182 8.58401 10.7711 8.07587 11.2898 8.65581C11.2898 8.65581 11.4168 8.72762 11.4168 9.04244C11.4168 9.04244 13.3704 7.87151 15.2744 8.65581C15.2744 8.65581 16.1464 8.95407 15.8981 10.0642C15.8981 10.0642 16.919 9.55058 17.5372 9.86541L17.7579 9.59477C17.7579 9.59477 16.7369 8.93198 14.9212 8.40727C14.9212 8.40727 13.823 8.0593 12.9068 8.05378C12.9068 8.05378 12.802 7.86599 12.6751 7.81628C12.6751 7.81628 12.813 7.55116 12.9179 7.26395C13.2269 7.28605 13.536 7.31366 13.8395 7.35785C15.4455 7.5843 17.0184 8.14215 18.5305 9.0093L19.0714 8.68895C17.4378 7.70581 15.727 7.07616 13.9775 6.82209C14.0658 6.71163 14.259 6.49622 14.5349 6.42994C14.5349 6.42994 14.9599 6.42442 15.1585 5.91628C15.1585 5.91628 15.153 5.80582 15.3738 5.78372L18.9003 4.62937C18.9003 4.62937 19.099 4.55756 18.9941 4.32006C18.9941 4.32006 18.9445 4.13227 18.7016 4.22617L15.142 5.59593C15.142 5.59593 15.015 5.62907 14.9985 5.50204C14.9985 5.50204 14.7667 5.40814 14.5459 5.77268C14.5459 5.77268 14.4135 5.86657 14.259 5.73401C14.259 5.73401 13.2932 5.23692 12.3219 5.32529C12.3219 5.32529 12.0845 5.17617 12.2722 5.14303C12.2722 5.14303 12.7854 5.14303 12.7799 4.86687C12.7799 4.86687 12.8296 4.63489 12.4488 4.5189C12.4488 4.5189 12.2446 3.59099 11.2457 3.95001C11.2457 3.95001 10.7104 4.18751 10.7545 4.70117C10.7545 4.70117 10.0812 4.86686 10.0426 5.5407C10.0426 5.5407 10.0646 6.19797 10.2247 6.83314C9.80526 6.8939 9.39135 6.97675 8.97192 7.07616C6.17387 7.75552 4.3968 9.0811 4.32506 9.14186L4.20364 9.23023L4.21468 9.37936C4.2202 9.46221 4.38025 11.4671 5.14737 13.9139L5.67165 13.7482C5.06458 11.7433 4.85487 10.0035 4.79968 9.48982C5.2467 9.18052 6.8582 8.1532 9.143 7.60087ZM12.8682 5.84448H13.4091C13.8506 5.86105 14.0548 6.31396 14.0548 6.31396C13.9609 6.42442 13.4587 6.54593 13.4587 6.54593C13.1 6.60116 13.0559 6.31396 13.0559 6.31396C13.0227 6.16483 13.1331 6.04884 13.1331 6.04884H12.9124C12.802 6.04332 12.7799 5.99361 12.7799 5.99361C12.7358 5.8721 12.8682 5.84448 12.8682 5.84448Z" fill="#2E4668"/>
<path d="M19.6122 9.03139C19.6122 9.03139 19.2204 9.08662 18.9389 9.25784C18.0725 9.81017 17.4213 11.2076 17.4213 11.2076C17.2391 11.6439 17.0349 11.6328 17.0349 11.6328C16.8087 11.6384 16.7535 11.4119 16.7535 11.4119C16.5989 10.7988 17.493 10.611 17.493 10.611C16.6762 10.1637 15.9036 10.7988 15.9036 10.7988C15.2855 11.2573 15.6552 11.8869 15.6552 11.8869C15.9477 12.3398 16.8252 12.2846 16.8252 12.2846C16.7424 12.8424 16.2954 13.2677 16.2954 13.2677C15.3903 12.7982 14.7557 13.1075 14.7557 13.1075C14.3197 13.2622 14.3859 13.7041 14.3859 13.7041C14.5735 14.4497 15.9808 14.0686 15.9808 14.0686C16.2568 13.9692 16.3672 14.0962 16.3672 14.0962C16.9577 14.7977 17.8683 14.4939 17.8683 14.4939C18.3981 14.2509 18.6795 14.3834 18.6795 14.3834C19.0769 14.6375 18.7734 15.0738 18.7734 15.0738C18.3484 15.8139 16.8473 15.6869 16.8473 15.6869C16.4003 15.698 14.9267 15.5875 14.1044 15.1677C13.1055 14.6541 11.6817 14.5049 11.6817 14.5049C9.18716 14.1349 6.8858 15.7366 6.8858 15.7366C7.81297 15.7256 8.19929 16.3166 8.19929 16.3166C8.77324 15.8029 9.64522 15.4328 9.64522 15.4328C11.2622 14.7259 13.8064 15.7256 13.8064 15.7256C16.9135 16.5762 18.4919 15.7366 18.4919 15.7366C19.684 15.1732 19.1321 14.1791 19.1321 14.1791C18.9279 13.7482 17.5923 13.8421 17.5923 13.8421C16.8804 13.7482 17.1232 13.4997 17.1232 13.4997C17.9124 13.0357 18.1884 11.9919 18.1884 11.9919C18.2712 11.782 18.4864 11.6605 18.4864 11.6605C19.9654 10.8927 20.3021 9.67209 20.3021 9.67209C20.4787 9.01482 19.8054 9.01482 19.6122 9.03139ZM14.866 13.566C14.9709 13.0468 15.9201 13.7372 15.9201 13.7372C14.8108 14.1459 14.866 13.566 14.866 13.566ZM18.6354 11.1302C18.6188 11.1413 18.5968 11.1247 18.6023 11.1026C18.7568 10.7657 19.4136 9.35726 19.8109 9.56715C19.8164 9.56715 20.3021 9.88197 18.6354 11.1302Z" fill="#2E4668"/>
<path d="M9.65633 19.1942C9.63426 19.1942 9.60666 19.1886 9.58459 19.1776L9.08789 18.8849C9.05478 18.8683 9.0327 18.8352 9.02166 18.802L8.91681 18.3933C8.90025 18.3215 8.9444 18.2442 9.01614 18.2276C9.08789 18.211 9.16515 18.2552 9.18171 18.327L9.27553 18.6805L9.72256 18.9401C9.78878 18.9788 9.81086 19.0616 9.77223 19.1279C9.75015 19.1665 9.706 19.1942 9.65633 19.1942Z" fill="#B4423E"/>
<path d="M10.2965 18.6915C10.2854 18.6915 10.2744 18.6915 10.2689 18.686L9.5735 18.5314C9.54039 18.5258 9.5128 18.5038 9.49624 18.4817L9.14304 18.0232C9.09888 17.9625 9.10992 17.8741 9.17063 17.8299C9.23134 17.7857 9.31964 17.7968 9.36379 17.8575L9.68388 18.2773L10.3296 18.4209C10.4013 18.4375 10.451 18.5093 10.4344 18.5866C10.4179 18.6474 10.3627 18.6915 10.2965 18.6915Z" fill="#B4423E"/>
<path d="M10.5945 18.1282C10.589 18.1282 10.589 18.1282 10.5835 18.1282L9.84395 18.0785C9.80531 18.0785 9.7722 18.0564 9.74461 18.0288L9.40796 17.6145C9.35829 17.5538 9.36933 17.4709 9.43003 17.4212C9.49074 17.3715 9.57352 17.3825 9.62319 17.4433L9.92121 17.8134L10.6 17.8575C10.6773 17.8631 10.7325 17.9293 10.727 18.0067C10.727 18.0729 10.6663 18.1282 10.5945 18.1282Z" fill="#B4423E"/>
<path d="M10.8484 17.5427C10.8484 17.5427 10.8428 17.5427 10.8484 17.5427L10.0923 17.5151C10.0647 17.5151 10.0426 17.5041 10.0205 17.493L9.52385 17.1506C9.46314 17.1064 9.44658 17.0236 9.49073 16.9573C9.53488 16.8965 9.61767 16.8799 9.68389 16.9241L10.1475 17.2445L10.8539 17.2721C10.9311 17.2776 10.9919 17.3384 10.9863 17.4157C10.9808 17.482 10.9201 17.5427 10.8484 17.5427Z" fill="#B4423E"/>
<path d="M10.1199 16.9242C10.0923 16.9242 10.0702 16.9186 10.0482 16.9021L9.62873 16.6369C9.56251 16.5983 9.54595 16.5099 9.58458 16.4436C9.62321 16.3774 9.71151 16.3608 9.77222 16.3994L10.153 16.6425L10.9367 16.5651C11.014 16.5596 11.0802 16.6149 11.0857 16.6867C11.0912 16.764 11.036 16.8303 10.9643 16.8358L10.1365 16.9186C10.1309 16.9242 10.1254 16.9242 10.1199 16.9242Z" fill="#B4423E"/>
<path d="M10.3737 16.2945C10.3627 16.2945 10.3461 16.2945 10.3351 16.2889L9.70039 16.1122C9.62865 16.0901 9.5845 16.0128 9.60657 15.941C9.62865 15.8692 9.70591 15.825 9.77766 15.8471L10.3737 16.0183L10.9642 15.8526C11.0359 15.8305 11.1132 15.8747 11.1353 15.9465C11.1574 16.0183 11.1132 16.0956 11.0415 16.1177L10.4178 16.2945C10.4013 16.2945 10.3847 16.2945 10.3737 16.2945Z" fill="#B4423E"/>
<path d="M14.2535 19.161C14.1928 19.161 14.1376 19.1224 14.121 19.0616C14.099 18.9898 14.1431 18.9125 14.2149 18.8904L14.7778 18.7247L14.8164 18.3049C14.8219 18.2276 14.8937 18.1724 14.9654 18.1834C15.0427 18.1889 15.0979 18.2607 15.0868 18.3325L15.0372 18.8462C15.0316 18.9014 14.993 18.9511 14.9378 18.9677L14.2866 19.1555C14.2811 19.161 14.27 19.161 14.2535 19.161Z" fill="#B4423E"/>
<path d="M13.6575 18.6915C13.5967 18.6915 13.5416 18.6529 13.525 18.5866C13.5029 18.5148 13.5471 18.4375 13.6243 18.4154L14.3197 18.2276L14.6508 17.8465C14.7005 17.7912 14.7888 17.7802 14.844 17.8299C14.8992 17.8796 14.9102 17.968 14.8606 18.0232L14.5018 18.4375C14.4853 18.4595 14.4577 18.4761 14.4356 18.4816L13.6961 18.6805C13.6795 18.686 13.6685 18.6915 13.6575 18.6915Z" fill="#B4423E"/>
<path d="M13.3705 18.0785C13.2987 18.0785 13.238 18.0233 13.2325 17.9515C13.227 17.8742 13.2822 17.8079 13.3594 17.8024L14.1376 17.7526L14.397 17.4378C14.4466 17.3771 14.5349 17.3715 14.5901 17.4212C14.6508 17.471 14.6564 17.5593 14.6067 17.6146L14.3087 17.9736C14.2866 18.0012 14.248 18.0233 14.2093 18.0233L13.3705 18.0785C13.3705 18.0785 13.376 18.0785 13.3705 18.0785Z" fill="#B4423E"/>
<path d="M13.8782 17.5427H13.1552C13.078 17.5427 13.0173 17.482 13.0173 17.4046C13.0173 17.3273 13.078 17.2666 13.1552 17.2666H13.8341L14.3032 16.9186C14.3639 16.8744 14.4522 16.8855 14.4963 16.9462C14.5405 17.007 14.5294 17.0953 14.4687 17.1395L13.961 17.5151C13.9334 17.5317 13.9058 17.5427 13.8782 17.5427Z" fill="#B4423E"/>
<path d="M13.8672 16.9241C13.8617 16.9241 13.8506 16.9241 13.8451 16.9241L13.0559 16.7915C12.9786 16.7805 12.929 16.7087 12.9455 16.6313C12.9566 16.554 13.0283 16.5043 13.1056 16.5209L13.8396 16.6479L14.1818 16.4104C14.2425 16.3662 14.3308 16.3828 14.3749 16.4435C14.4191 16.5043 14.4025 16.5927 14.3418 16.6369L13.9555 16.902C13.9224 16.913 13.8948 16.9241 13.8672 16.9241Z" fill="#B4423E"/>
<path d="M12.9234 16.0349C12.9234 16.0349 13.525 16.2779 13.696 16.2724C13.696 16.2724 13.2821 16.3607 12.9952 16.184C13.0007 16.184 12.9069 16.1398 12.9234 16.0349Z" fill="#B4423E"/>
<path d="M17.0019 4.31453C17.3646 4.31453 17.6586 4.02027 17.6586 3.65727C17.6586 3.29427 17.3646 3 17.0019 3C16.6392 3 16.3452 3.29427 16.3452 3.65727C16.3452 4.02027 16.6392 4.31453 17.0019 4.31453Z" fill="#B4423E"/>
</svg>
