<svg width="24" height="24" viewBox="0 0 24 24" fill="none" xmlns="http://www.w3.org/2000/svg">
<path d="M22.109 12.0001C22.109 6.47727 17.6319 2.00012 12.109 2.00012C6.58617 2.00012 2.10902 6.47727 2.10902 12.0001C2.10902 17.523 6.58617 22.0001 12.109 22.0001C17.6319 22.0001 22.109 17.523 22.109 12.0001Z" fill="#05159F"/>
<path d="M12.1111 20.6164C16.8698 20.6164 20.7274 16.7587 20.7274 12C20.7274 7.24134 16.8698 3.38367 12.1111 3.38367C7.35242 3.38367 3.49475 7.24134 3.49475 12C3.49475 16.7587 7.35242 20.6164 12.1111 20.6164Z" fill="#F7F7F7"/>
<path d="M5.86574 9.59517C5.86578 9.59411 5.86662 9.59328 5.86767 9.59328L8.95999 9.60186C9.31006 9.57541 9.63632 9.40359 9.85751 9.1256L11.3865 7.20368C11.4103 7.17526 11.4449 7.15726 11.4818 7.15735L16.6902 7.17183C16.7942 7.17213 16.8776 7.25666 16.8763 7.36067L16.851 9.43928C16.8497 9.54329 16.7644 9.62733 16.6603 9.62707L9.5844 9.6074C9.48034 9.60714 9.39493 9.69122 9.3937 9.79519L9.38297 10.6763C9.38169 10.7803 9.46503 10.8648 9.56909 10.8651L18.214 10.8891C18.318 10.8894 18.4014 10.974 18.4001 11.0779L18.3606 14.3285C18.3594 14.4325 18.274 14.5166 18.1699 14.5163L15.1041 14.5077C15.0885 14.5077 15.073 14.5095 15.0579 14.5136C14.7987 14.5832 14.5648 14.7345 14.3936 14.9494L12.942 16.771C12.9057 16.8166 12.8507 16.8431 12.7927 16.8429L7.19625 16.8273C7.09219 16.827 7.00886 16.7424 7.01013 16.6385L7.03429 14.6497C7.03557 14.5457 7.12097 14.4616 7.22503 14.4619L14.6399 14.4826C14.744 14.4829 14.8294 14.3988 14.8307 14.2948L14.8411 13.4336C14.8424 13.3295 14.7591 13.245 14.655 13.2447L9.35947 13.23C9.35529 13.23 9.35181 13.2334 9.35177 13.2376C9.35173 13.2418 9.34825 13.2452 9.34407 13.2452L5.82904 13.2354C5.82486 13.2354 5.82147 13.232 5.82152 13.2278L5.86574 9.59517Z" fill="#05159F"/>
<path d="M12 23C18.0751 23 23 18.0751 23 12C23 5.92487 18.0751 1 12 1C5.92487 1 1 5.92487 1 12C1 18.0751 5.92487 23 12 23Z" fill="#7BF9F8"/>
<path d="M4.46415 9.26861C4.46417 9.26742 4.46522 9.26646 4.4665 9.26646L8.25244 9.27622C8.68104 9.24622 9.08047 9.05108 9.35125 8.73533L11.2232 6.55262C11.2524 6.52033 11.2947 6.49987 11.3399 6.5L17.7165 6.51641C17.8439 6.51676 17.9459 6.61277 17.9444 6.73087L17.9134 9.0916C17.9118 9.2097 17.8073 9.30522 17.6799 9.30487L9.01689 9.28256C8.88951 9.28225 8.78497 9.37773 8.78338 9.49583L8.77027 10.4965C8.76873 10.6146 8.87077 10.7106 8.99815 10.7109L19.5821 10.7382C19.7095 10.7385 19.8115 10.8345 19.81 10.9526L19.7616 14.6444C19.7601 14.7625 19.6555 14.858 19.5281 14.8577L15.7747 14.8479C15.7556 14.8479 15.7366 14.8499 15.7181 14.8545C15.4008 14.9337 15.1143 15.1055 14.9048 15.3495L13.1276 17.4184C13.0832 17.4701 13.0158 17.5002 12.9448 17.5L6.09309 17.4823C5.96571 17.4819 5.86368 17.3859 5.86522 17.2678L5.89483 15.0091C5.89637 14.891 6.00091 14.7955 6.12834 14.7958L15.2064 14.8193C15.3338 14.8197 15.4383 14.7242 15.4399 14.6061L15.4527 13.6279C15.4542 13.5098 15.3522 13.4138 15.2248 13.4135L8.74154 13.3968C8.73639 13.3968 8.73217 13.4007 8.73208 13.4054C8.73204 13.4102 8.72781 13.414 8.72266 13.414L4.41922 13.4029C4.41407 13.4029 4.40994 13.3991 4.41 13.3943L4.46415 9.26861Z" fill="#05159F"/>
</svg>
