<svg width="24" height="24" viewBox="0 0 24 24" fill="none" xmlns="http://www.w3.org/2000/svg">
<path fill-rule="evenodd" clip-rule="evenodd" d="M23.7475 9.3072C24.1786 10.0342 24.0457 10.9512 23.4407 11.531C23.4407 11.531 23.4407 11.531 23.4407 11.531L13.279 21.2695L12.5871 20.5475L22.7488 10.809C23.0219 10.5473 23.0787 10.14 22.8874 9.81723L19.1955 3.59407C19.0447 3.33989 18.7654 3.18321 18.4631 3.18321H5.79149C5.4977 3.18321 5.22498 3.33123 5.07129 3.57411L1.1251 9.81041C0.919629 10.1351 0.971953 10.5544 1.25138 10.8222L11.3993 20.5475L10.7074 21.2695L0.559486 11.5441C0.559481 11.5441 0.559491 11.5441 0.559486 11.5441C-0.0597638 10.9507 -0.182427 10.0067 0.280075 9.27572L4.22627 3.0394C4.56816 2.49912 5.16415 2.18323 5.79149 2.18323H18.4631C19.1084 2.18323 19.7196 2.51754 20.0556 3.08389L23.7475 9.3072ZM11.3993 20.5475L10.7074 21.2695C11.4233 21.9556 12.5631 21.9556 13.279 21.2695L12.5871 20.5475C12.258 20.8629 11.7284 20.8629 11.3993 20.5475Z" fill="#00EF8B"/>
<path fill-rule="evenodd" clip-rule="evenodd" d="M5.7915 3.18323H18.4631C18.7654 3.18323 19.0448 3.3399 19.1955 3.59409L22.8874 9.81725C23.0787 10.14 23.0219 10.5473 22.7488 10.809L12.5872 20.5475C12.258 20.863 11.7284 20.863 11.3993 20.5475L1.25139 10.8222C0.971967 10.5544 0.919644 10.1352 1.12512 9.81043L5.0713 3.57412C5.22499 3.33124 5.49771 3.18323 5.7915 3.18323ZM16.827 5.96165V7.70777H13.2174V8.91841C15.7525 9.04779 17.6545 9.57915 17.6686 10.216L17.6686 11.5438C17.6544 12.1807 15.7525 12.712 13.2174 12.8414V15.8124H10.8205V12.8414C8.28535 12.712 6.38331 12.1807 6.3692 11.5438L6.3693 10.216C6.38339 9.57915 8.28535 9.04779 10.8205 8.91841V7.70777H7.21088V5.96165H16.827ZM12.0189 11.9292C14.7244 11.9292 16.9857 11.4799 17.5391 10.8799C17.0698 10.3711 15.3723 9.97064 13.2174 9.86066V11.1282C12.8311 11.1479 12.4301 11.1583 12.0189 11.1583C11.6077 11.1583 11.2067 11.1479 10.8205 11.1282V9.86066C8.6655 9.97064 6.96804 10.3711 6.49875 10.8799C7.05216 11.4799 9.31346 11.9292 12.0189 11.9292Z" fill="#009393"/>
</svg>
