<svg width="24" height="24" viewBox="0 0 24 24" fill="none" xmlns="http://www.w3.org/2000/svg">
<path fill-rule="evenodd" clip-rule="evenodd" d="M12 24C18.6274 24 24 18.6274 24 12C24 5.37258 18.6274 0 12 0C5.37258 0 0 5.37258 0 12C0 18.6274 5.37258 24 12 24ZM6.96958 15.25C6.82879 15.25 6.69604 15.3086 6.59949 15.4091L4.07724 18.0351C3.91231 18.2068 4.02897 18.5 4.26229 18.5H17.0304C17.1712 18.5 17.304 18.4414 17.4005 18.3408L19.9228 15.7149C20.0877 15.5432 19.971 15.25 19.7377 15.25H6.96958ZM6.59949 5.65915C6.70006 5.55863 6.83281 5.5 6.96958 5.5H19.7377C19.971 5.5 20.0877 5.79317 19.9228 5.96488L17.4005 8.59085C17.304 8.69137 17.1712 8.75 17.0304 8.75H4.26229C4.02897 8.75 3.91231 8.45683 4.07724 8.28512L6.59949 5.65915ZM17.0304 10.375C17.1712 10.375 17.304 10.4336 17.4005 10.5341L19.9228 13.1601C20.0877 13.3318 19.971 13.625 19.7377 13.625H6.96958C6.82879 13.625 6.69604 13.5664 6.59949 13.4658L4.07724 10.8399C3.91231 10.6682 4.02897 10.375 4.26229 10.375H17.0304Z" fill="white"/>
</svg>
