<svg width="24" height="24" viewBox="0 0 24 24" fill="none" xmlns="http://www.w3.org/2000/svg">
<circle cx="12" cy="12" r="12" fill="#FF060A"/>
<path fill-rule="evenodd" clip-rule="evenodd" d="M19.3032 8.94436C19.0064 8.66763 18.6623 8.33024 18.3037 7.97867L18.3037 7.97863L18.3037 7.97859C17.8 7.48479 17.2678 6.96301 16.7982 6.54205L16.7506 6.50842C16.6714 6.44422 16.5822 6.39388 16.4865 6.35947L16.1241 6.2912C13.6229 5.81992 5.51501 4.29222 5.34823 4.3127C5.2989 4.31968 5.25175 4.33774 5.21025 4.36555L5.16505 4.40159C5.10939 4.45867 5.06712 4.52763 5.04134 4.60338L5.02945 4.63461V4.80518V4.8316C5.5799 6.37939 7.0098 9.83597 8.33008 13.0276C9.4463 15.7259 10.4842 18.2348 10.846 19.2407L10.8461 19.2411C10.8938 19.3901 10.9841 19.6731 11.1529 19.6875H11.191C11.2814 19.6875 11.6667 19.1734 11.6667 19.1734C11.6667 19.1734 18.5562 10.7365 19.2533 9.83802C19.3435 9.72735 19.4231 9.6083 19.4911 9.48248C19.5265 9.28222 19.4551 9.07794 19.3032 8.94436ZM13.4343 9.92692L16.3747 7.46455L18.0995 9.0693L13.4343 9.92692ZM7.23 5.57629L12.2924 9.76592L15.4208 7.10176L7.23 5.57629ZM12.7492 10.8638L17.9306 10.0206L12.007 17.2276L12.7492 10.8638ZM11.869 10.5587L6.54248 5.99431L11.0982 17.2323L11.869 10.5587Z" fill="white"/>
</svg>
