<svg width="24" height="24" viewBox="0 0 24 24" fill="none" xmlns="http://www.w3.org/2000/svg">
<path fill-rule="evenodd" clip-rule="evenodd" d="M12 24C18.6274 24 24 18.6274 24 12C24 5.37256 18.6274 0 12 0C5.37258 0 0 5.37256 0 12C0 18.6274 5.37258 24 12 24ZM14.7666 18.5112L12.2324 14.6145L13.7794 12.0425L17.1075 17.1821L14.7666 18.5112ZM19.2277 14.5388V8.29028C19.2191 8.11133 19.122 7.94727 18.9671 7.85059L12.4198 4.16089C12.2667 4.08716 12.0725 4.08789 11.9195 4.16309C11.8989 4.17334 5.39452 7.86206 5.36441 7.88306C5.24383 7.96777 5.16372 8.09326 5.13801 8.23364C5.13408 8.25488 5.13128 8.27637 5.12991 8.29834L5.13989 14.2705L8.52693 9.12646C8.95345 8.44434 9.8826 8.22461 10.7452 8.23657L11.7576 8.2627L5.79256 17.6353L4.00006 16.6233L4.00031 15.9858V8.24585C4.02676 7.7395 4.28429 7.27856 4.70676 6.98169C4.78698 6.92554 4.87221 6.87598 4.9607 6.83447C4.9607 6.83447 11.3559 3.20068 11.4113 3.1731C11.8801 2.94214 12.465 2.94238 12.9331 3.17334L19.5662 6.91064C20.0395 7.20215 20.3416 7.70264 20.3639 8.24927V15.7292C20.3429 16.22 20.1101 16.6731 19.7143 16.9734L12.8188 20.886C12.622 20.9617 12.414 21 12.2007 21C11.9681 21 11.71 20.9502 11.5306 20.865C11.5079 20.8542 11.4435 20.8196 11.349 20.7676L11.1301 20.6462L8.60586 19.2222L8.60569 19.2224L6.49579 18.0322L12.5323 8.27246L15.2003 8.26294L9.17965 18.2688L11.9885 19.8516C12.1153 19.9023 12.2648 19.9048 12.3926 19.8596L14.7667 18.5115L17.1077 17.1824L17.7624 16.8103L14.2518 11.2473L15.601 9.00439L19.2277 14.5388Z" fill="white"/>
</svg>
