<svg width="24" height="24" viewBox="0 0 24 24" fill="none" xmlns="http://www.w3.org/2000/svg">
<circle cx="12" cy="12" r="12" fill="#529C92"/>
<path fill-rule="evenodd" clip-rule="evenodd" d="M17.2381 12.9412C17.2381 12.5969 17.1873 12.2623 17.0914 11.9418C17.9364 12.5945 18.3429 13.349 18.3429 14.0707C18.3429 14.9132 17.7888 15.8005 16.6296 16.5184C16.5481 16.5689 16.4641 16.6181 16.3777 16.6661C16.5316 16.8884 16.6597 17.1238 16.7589 17.3695C18.222 16.5595 19.1429 15.3817 19.1429 14.0707C19.1429 12.817 18.3008 11.6852 16.9478 10.8802C17.1359 10.3467 17.2381 9.77338 17.2381 9.17647C17.2381 9.07787 17.2353 8.97992 17.2298 8.88268C17.6961 9.09294 18.1283 9.32964 18.5209 9.58827C20.1534 10.6638 21 12.0365 21 13.4118C21 14.7871 20.1534 16.1598 18.5209 17.2353C18.0522 17.5441 17.5271 17.8216 16.9548 18.0602C16.9846 18.2367 17 18.417 17 18.6001C17 18.7816 16.9849 18.9603 16.9556 19.1355C19.9691 18.0006 22 15.8624 22 13.4118C22 10.9804 20.0009 8.85666 17.0264 7.71507C16.3882 5.56779 14.3794 4 12 4C9.62063 4 7.61179 5.56779 6.97356 7.71507C3.99914 8.85666 2 10.9804 2 13.4118C2 15.8624 4.03092 18.0006 7.0444 19.1355C7.01512 18.9603 7 18.7816 7 18.6001C7 18.417 7.01539 18.2367 7.04517 18.0602C6.47288 17.8216 5.94776 17.5441 5.47909 17.2353C3.84659 16.1598 3 14.7871 3 13.4118C3 12.0365 3.84659 10.6638 5.47909 9.58827C5.87167 9.32964 6.30386 9.09294 6.7702 8.88268C6.76469 8.97992 6.7619 9.07787 6.7619 9.17647C6.7619 9.77338 6.86414 10.3467 7.05225 10.8802C5.69924 11.6852 4.85715 12.817 4.85715 14.0707C4.85715 15.3817 5.77805 16.5594 7.2411 17.3695C7.34031 17.1238 7.46843 16.8884 7.62225 16.6661C7.53592 16.6181 7.45195 16.5689 7.37045 16.5184C6.21124 15.8005 5.65715 14.9132 5.65715 14.0707C5.65715 13.349 6.06361 12.5945 6.90859 11.9418C6.81271 12.2623 6.7619 12.597 6.7619 12.9412C6.7619 14.1052 7.34262 15.1595 8.28256 15.9251C8.53724 15.6987 8.82375 15.4957 9.13646 15.3206C8.26493 14.6978 7.7619 13.8139 7.7619 12.9412C7.7619 12.736 7.78973 12.5301 7.84362 12.3272C8.80116 13.559 10.3068 14.3529 12 14.3529C13.6932 14.3529 15.1988 13.559 16.1564 12.3272C16.2103 12.5302 16.2381 12.736 16.2381 12.9412C16.2381 13.8139 15.7351 14.6978 14.8635 15.3206C15.1762 15.4957 15.4628 15.6987 15.7174 15.925C16.6574 15.1595 17.2381 14.1052 17.2381 12.9412ZM15.2152 16.285C14.9368 16.0519 14.6154 15.8473 14.2579 15.6804C13.6249 15.9896 12.8616 16.1765 12 16.1765C11.1384 16.1765 10.3751 15.9896 9.74209 15.6804C9.38457 15.8473 9.06322 16.0519 8.78477 16.285C9.67229 16.8437 10.7881 17.1765 12 17.1765C13.2119 17.1765 14.3277 16.8437 15.2152 16.285ZM8.17018 16.9382C8.00822 17.1607 7.87803 17.3967 7.78318 17.6414C8.96496 18.1776 10.4228 18.4942 12 18.4942C13.5772 18.4942 15.035 18.1776 16.2168 17.6415C16.122 17.3967 15.9918 17.1607 15.8298 16.9382C14.7739 17.4065 13.4528 17.6942 12 17.6942C10.5472 17.6942 9.22606 17.4065 8.17018 16.9382ZM16.3799 18.281C15.0916 18.7353 13.6013 19 12 19C10.3987 19 8.90837 18.7353 7.62011 18.281C7.60679 18.3867 7.6 18.4932 7.6 18.6001C7.6 18.8599 7.64006 19.1171 7.7166 19.3668C9.01495 19.7728 10.4672 20 12 20C13.5328 20 14.9851 19.7728 16.2834 19.3668C16.3599 19.1171 16.4 18.8599 16.4 18.6001C16.4 18.4932 16.3932 18.3867 16.3799 18.281Z" fill="white"/>
</svg>
