<svg width="24" height="24" viewBox="0 0 24 24" fill="none" xmlns="http://www.w3.org/2000/svg">
<path d="M16.3718 13.3011C16.34 13.2482 16.2951 13.2045 16.2413 13.1742C16.1876 13.1439 16.1269 13.128 16.0652 13.1282L15.2427 13.1342C15.2226 13.1339 15.2029 13.1389 15.1853 13.1487C15.1678 13.1584 15.1532 13.1727 15.143 13.19C15.1328 13.2072 15.1274 13.2269 15.1272 13.2469C15.127 13.267 15.1322 13.2867 15.1421 13.3041L16.1858 15.1532C16.1979 15.1738 16.2043 15.1972 16.2043 15.2211C16.2043 15.245 16.1979 15.2684 16.1858 15.289L15.4669 16.5599C15.4247 16.6342 15.3636 16.6959 15.2898 16.7388C15.2159 16.7818 15.132 16.8043 15.0466 16.8042H9.90859C9.85571 16.8044 9.80372 16.7906 9.75784 16.7643C9.71195 16.738 9.67379 16.7001 9.64717 16.6544L6.99973 12.0825C6.97747 12.0443 6.96574 12.001 6.96574 11.9568C6.96574 11.9126 6.97747 11.8692 6.99973 11.8311L9.62806 7.33357C9.65029 7.29628 9.68179 7.26539 9.71949 7.24389C9.7572 7.2224 9.79983 7.21103 9.84324 7.2109L15.2055 7.20185C15.2291 7.20176 15.2524 7.20794 15.2729 7.21978C15.2934 7.23161 15.3104 7.24867 15.3221 7.26922L16.214 8.68997C16.2253 8.71024 16.2313 8.73309 16.2313 8.75633C16.2313 8.77957 16.2253 8.80242 16.214 8.82269L13.5263 13.5384C13.5145 13.5593 13.4974 13.5767 13.4768 13.5888C13.4561 13.601 13.4327 13.6076 13.4087 13.6078H11.7195C11.6762 13.6077 11.6337 13.5963 11.5961 13.5748C11.5586 13.5533 11.5273 13.5224 11.5053 13.4851L10.7009 12.1297C10.6782 12.0914 10.6662 12.0476 10.6662 12.003C10.6662 11.9585 10.6782 11.9147 10.7009 11.8763L11.4942 10.531C11.5162 10.4937 11.5474 10.4627 11.585 10.4412C11.6226 10.4197 11.6651 10.4083 11.7084 10.4083H13.3554C13.3956 10.4097 13.4348 10.4208 13.4698 10.4406C13.5048 10.4604 13.5346 10.4883 13.5565 10.522L13.6017 10.5923C13.6683 10.6833 13.7544 10.7582 13.8538 10.8115C13.9532 10.8647 14.0632 10.895 14.1759 10.9L14.7792 10.894C14.7989 10.8941 14.8184 10.8891 14.8356 10.8794C14.8528 10.8697 14.8672 10.8557 14.8774 10.8387C14.8875 10.8218 14.8931 10.8025 14.8935 10.7827C14.8939 10.763 14.8892 10.7434 14.8797 10.7261L14.2603 9.57178C14.2059 9.48824 14.1313 9.41975 14.0435 9.37265C13.9556 9.32555 13.8573 9.30136 13.7576 9.30231H11.2761C11.1724 9.30298 11.0707 9.33036 10.9807 9.38178C10.8907 9.43321 10.8155 9.50695 10.7623 9.59591L9.52148 11.6984C9.46853 11.7901 9.44066 11.8941 9.44066 12C9.44066 12.1059 9.46853 12.21 9.52148 12.3017L10.7733 14.4132C10.826 14.5024 10.901 14.5764 10.9909 14.6278C11.0808 14.6793 11.1825 14.7065 11.2861 14.7068H13.7888C13.895 14.7067 13.9993 14.6783 14.0909 14.6243C14.1825 14.5704 14.258 14.493 14.3096 14.4001L17.2919 9.03183C17.3428 8.94058 17.3688 8.8375 17.3673 8.73299C17.3657 8.62848 17.3365 8.52624 17.2828 8.43658L16.0913 6.38339L16.0772 6.36127C16.0232 6.27704 15.9488 6.20782 15.861 6.16001C15.7731 6.1122 15.6745 6.08735 15.5745 6.08777L9.40686 6.09883C9.30262 6.09845 9.20013 6.12557 9.10974 6.17748C9.01935 6.22938 8.94426 6.30423 8.89205 6.39445L5.8203 11.6582C5.76864 11.749 5.74149 11.8518 5.74149 11.9563C5.74149 12.0608 5.76864 12.1635 5.8203 12.2544L8.92121 17.6106C8.97376 17.7017 9.04919 17.7774 9.14002 17.8303C9.23085 17.8832 9.33392 17.9115 9.43903 17.9123H15.6248C15.7302 17.9122 15.8337 17.8843 15.9248 17.8313C16.0159 17.7784 16.0914 17.7022 16.1436 17.6106L17.3391 15.5092C17.391 15.4168 17.4177 15.3125 17.4164 15.2066C17.4152 15.1007 17.3861 14.997 17.3321 14.9059L16.3718 13.3011Z" fill="url(#paint0_linear_1433_2122)"/>
<path d="M12 1C9.82441 1 7.69767 1.64514 5.88873 2.85383C4.07979 4.06253 2.66989 5.78049 1.83733 7.79048C1.00477 9.80047 0.78693 12.0122 1.21137 14.146C1.6358 16.2798 2.68345 18.2398 4.22183 19.7782C5.76021 21.3165 7.72022 22.3642 9.85401 22.7886C11.9878 23.2131 14.1995 22.9952 16.2095 22.1627C18.2195 21.3301 19.9375 19.9202 21.1462 18.1113C22.3549 16.3023 23 14.1756 23 12C23 9.08262 21.8411 6.28472 19.7782 4.22182C17.7153 2.15892 14.9174 1 12 1ZM12 22.0749C10.0074 22.0749 8.05948 21.4841 6.40266 20.377C4.74584 19.27 3.45451 17.6965 2.69196 15.8555C1.92941 14.0146 1.72989 11.9888 2.11864 10.0345C2.50738 8.08012 3.46693 6.28494 4.87594 4.87593C6.28494 3.46692 8.08013 2.50738 10.0345 2.11863C11.9888 1.72989 14.0146 1.92941 15.8555 2.69196C17.6965 3.4545 19.27 4.74584 20.377 6.40265C21.4841 8.05947 22.075 10.0074 22.075 12C22.075 14.672 21.0135 17.2346 19.1241 19.1241C17.2346 21.0135 14.672 22.0749 12 22.0749Z" fill="url(#paint1_linear_1433_2122)"/>
<defs>
<linearGradient id="paint0_linear_1433_2122" x1="15.8017" y1="5.80121" x2="8.70403" y2="18.8856" gradientUnits="userSpaceOnUse">
<stop offset="0.13" stop-color="#A972EB"/>
<stop offset="1" stop-color="#674FC4"/>
</linearGradient>
<linearGradient id="paint1_linear_1433_2122" x1="11.8572" y1="1.16088" x2="12.1729" y2="25.1196" gradientUnits="userSpaceOnUse">
<stop offset="0.09" stop-color="#9668E0"/>
<stop offset="0.97" stop-color="#684FC4"/>
</linearGradient>
</defs>
</svg>
