<svg width="24" height="24" viewBox="0 0 24 24" fill="none" xmlns="http://www.w3.org/2000/svg">
<circle cx="12" cy="12" r="12" fill="#8247E5"/>
<path d="M15.8577 9.2424C15.5836 9.08735 15.2311 9.08735 14.9178 9.2424L12.7245 10.5215L11.2363 11.3355L9.08225 12.6146C8.80809 12.7697 8.45561 12.7697 8.1423 12.6146L6.45822 11.6068C6.18407 11.4518 5.98825 11.1417 5.98825 10.7928V8.85478C5.98825 8.5447 6.14491 8.23461 6.45822 8.0408L8.1423 7.07177C8.41645 6.91673 8.76893 6.91673 9.08225 7.07177L10.7663 8.07956C11.0405 8.23461 11.2363 8.5447 11.2363 8.89355V10.1727L12.7245 9.31992V8.00204C12.7245 7.69195 12.5679 7.38186 12.2546 7.18806L9.12141 5.36628C8.84726 5.21124 8.49478 5.21124 8.18146 5.36628L4.96997 7.22682C4.65666 7.38186 4.5 7.69195 4.5 8.00204V11.6456C4.5 11.9557 4.65666 12.2658 4.96997 12.4596L8.1423 14.2813C8.41645 14.4364 8.76893 14.4364 9.08225 14.2813L11.2363 13.041L12.7245 12.1882L14.8786 10.9479C15.1527 10.7928 15.5052 10.7928 15.8185 10.9479L17.5026 11.9169C17.7768 12.072 17.9726 12.382 17.9726 12.7309V14.669C17.9726 14.979 17.8159 15.2891 17.5026 15.4829L15.8577 16.452C15.5836 16.607 15.2311 16.607 14.9178 16.452L13.2337 15.4829C12.9595 15.3279 12.7637 15.0178 12.7637 14.669V13.4286L11.2755 14.2813V15.5605C11.2755 15.8705 11.4321 16.1806 11.7454 16.3744L14.9178 18.1962C15.1919 18.3513 15.5444 18.3513 15.8577 18.1962L19.03 16.3744C19.3042 16.2194 19.5 15.9093 19.5 15.5605V11.8782C19.5 11.5681 19.3433 11.258 19.03 11.0642L15.8577 9.2424Z" fill="white"/>
</svg>
