<svg width="24" height="24" viewBox="0 0 24 24" fill="none" xmlns="http://www.w3.org/2000/svg">
<path fill-rule="evenodd" clip-rule="evenodd" d="M12 24C18.6274 24 24 18.6274 24 12C24 5.37258 18.6274 0 12 0C5.37258 0 0 5.37258 0 12C0 18.6274 5.37258 24 12 24ZM15.1123 9.32862C15.4465 9.16324 15.8225 9.16324 16.1149 9.32862L19.4987 11.2718C19.8329 11.4786 20 11.8093 20 12.1401V16.0679C20 16.44 19.7911 16.7708 19.4987 16.9361L16.1149 18.8794C15.7807 19.0447 15.4047 19.0447 15.1123 18.8794L11.7285 16.9361C11.3943 16.7294 11.2272 16.3987 11.2272 16.0679V14.7035L12.8146 13.7939V15.117C12.8146 15.4891 13.0235 15.8198 13.3159 15.9852L15.1123 17.0188C15.4465 17.1842 15.8225 17.1842 16.1149 17.0188L17.8695 15.9852C18.2037 15.7785 18.3708 15.4477 18.3708 15.117V13.0497C18.3708 12.6776 18.1619 12.3468 17.8695 12.1814L16.0731 11.1478C15.7389 10.9824 15.3629 10.9824 15.0705 11.1478L12.7728 12.4709L11.1854 13.3805L8.88773 14.7035C8.55352 14.8689 8.17755 14.8689 7.88512 14.7035L4.50131 12.7603C4.1671 12.5536 4 12.2228 4 11.892V8.00558C4 7.67482 4.1671 7.34405 4.50131 7.17867L7.92689 5.1941C8.2611 5.02872 8.63708 5.02872 8.9295 5.1941L12.2715 7.13733C12.6057 7.34405 12.7728 7.67482 12.7728 8.00558V9.41131L11.1854 10.3209V8.95652C11.1854 8.58441 10.9765 8.25365 10.6841 8.08827L8.88773 7.01329C8.55352 6.84791 8.17755 6.84791 7.88512 7.01329L6.08877 8.04692C5.75457 8.25365 5.58747 8.58441 5.58747 8.91517V10.9824C5.58747 11.3545 5.79634 11.6853 6.08877 11.8507L7.88512 12.9257C8.21932 13.091 8.5953 13.091 8.88773 12.9257L11.1854 11.5613L12.7728 10.693L15.1123 9.32862Z" fill="white"/>
</svg>
