<svg width="24" height="24" viewBox="0 0 24 24" fill="none" xmlns="http://www.w3.org/2000/svg">
<path d="M13.9666 7.88328C13.9221 7.87706 13.8817 7.85397 13.8538 7.8188C13.8258 7.78363 13.8125 7.73906 13.8165 7.69433L14.2466 2.94843L10.4986 7.03834C10.4203 7.12367 10.3226 7.18885 10.2138 7.22835C10.1049 7.26784 9.98818 7.28049 9.8734 7.26521L5.68594 6.71001L7.36416 9.9835C7.41122 10.0772 7.42914 10.1828 7.41562 10.2868C7.40211 10.3908 7.35777 10.4883 7.28832 10.5669L2.80365 15.4771L9.03234 13.3591L12.627 20.5666L13.4457 12.1511C13.4574 12.0371 13.5009 11.9287 13.5713 11.8383C13.6417 11.7478 13.7361 11.679 13.8437 11.6397L21.5607 8.94571L13.9666 7.88328ZM12.4663 10.2794C12.3802 10.3121 12.3046 10.3673 12.2472 10.4393C12.1899 10.5112 12.1529 10.5973 12.1402 10.6884L11.7189 13.7153L10.2147 11.2083C10.2022 11.1876 10.1829 11.1717 10.1601 11.1635C10.1374 11.1553 10.1124 11.1552 10.0896 11.1632L7.2342 12.168L9.23264 9.93423C9.26204 9.90155 9.28034 9.8604 9.28494 9.81669C9.28954 9.77297 9.2802 9.72892 9.25825 9.69083L8.23083 7.8969L10.4348 8.28907C10.4974 8.3003 10.5618 8.29565 10.6222 8.27555C10.6825 8.25545 10.7369 8.22054 10.7803 8.17401L12.6811 6.13505L12.3969 8.3299C12.3871 8.40526 12.4064 8.48152 12.451 8.54305C12.4956 8.60459 12.5621 8.64672 12.6367 8.66082L15.3683 9.17939L12.4663 10.2794Z" fill="white"/>
<path d="M4.48383 12.5673L6.64855 10.1952L5.54658 8.0473C4.83339 9.23366 4.45764 10.5922 4.45985 11.9765C4.46093 12.1755 4.46892 12.3724 4.48383 12.5673Z" fill="white"/>
<path d="M14.4437 7.28983L18.5433 7.8635C17.6294 6.43509 16.2676 5.35007 14.6712 4.77832L14.4437 7.28983Z" fill="white"/>
<path d="M9.93207 6.59108L11.9963 4.33691C10.1785 4.35941 8.42873 5.03187 7.06372 6.23262L9.88345 6.60696C9.89224 6.60839 9.90123 6.60769 9.90969 6.60493C9.91815 6.60216 9.92582 6.59742 9.93207 6.59108Z" fill="white"/>
<path d="M14.0265 12.2525L13.3196 19.521C16.961 18.9395 19.7425 15.7824 19.7425 11.9764C19.7426 11.4193 19.6819 10.8638 19.5616 10.3199L14.0265 12.2525Z" fill="white"/>
<path d="M8.61975 14.1752L5.23315 15.3264C5.80268 16.4931 6.65993 17.4956 7.7241 18.2393C8.78827 18.983 10.0243 19.4435 11.3157 19.5774L8.61975 14.1752Z" fill="white"/>
<path d="M11.9963 23C9.82144 23.0001 7.6954 22.3552 5.88705 21.1469C4.0787 19.9386 2.66927 18.2213 1.837 16.2119C1.00473 14.2026 0.786995 11.9916 1.21134 9.85855C1.63569 7.72548 2.68305 5.76615 4.22098 4.22835C5.24168 3.20562 6.45395 2.39409 7.78848 1.84015C9.12301 1.28621 10.5536 1.00072 11.9986 1C13.4435 0.999286 14.8744 1.28336 16.2095 1.83598C17.5446 2.3886 18.7576 3.19893 19.7793 4.22065C20.8011 5.24237 21.6114 6.45544 22.164 7.79052C22.7166 9.1256 23.0007 10.5565 23 12.0014C22.9993 13.4464 22.7138 14.877 22.1599 16.2115C21.6059 17.546 20.7944 18.7583 19.7716 19.779C18.753 20.8033 17.5412 21.6154 16.2066 22.1683C14.872 22.7212 13.4409 23.0039 11.9963 23ZM11.9963 1.688C9.9562 1.68827 7.96199 2.29347 6.26582 3.42708C4.56966 4.56068 3.24772 6.17179 2.46717 8.05666C1.68662 9.94154 1.4825 12.0156 1.88063 14.0164C2.27877 16.0173 3.26126 17.8552 4.7039 19.2977C5.6563 20.2795 6.79443 21.062 8.05208 21.5997C9.30972 22.1375 10.6618 22.4198 12.0295 22.4302C13.3973 22.4405 14.7534 22.1788 16.0191 21.6602C17.2847 21.1415 18.4346 20.3763 19.4018 19.4092C20.369 18.442 21.1341 17.2921 21.6528 16.0265C22.1714 14.7608 22.4332 13.4046 22.4228 12.0369C22.4124 10.6691 22.1301 9.3171 21.5924 8.05945C21.0546 6.80181 20.2721 5.66368 19.2903 4.71127C18.3349 3.75002 17.1982 2.98786 15.9462 2.46891C14.6942 1.94996 13.3516 1.68453 11.9963 1.688Z" fill="white"/>
</svg>
