<svg width="24" height="24" viewBox="0 0 24 24" fill="none" xmlns="http://www.w3.org/2000/svg">
<path fill-rule="evenodd" clip-rule="evenodd" d="M23 12C23 18.0751 18.0751 23 12 23C5.92487 23 1 18.0751 1 12C1 5.92487 5.92487 1 12 1C18.0751 1 23 5.92487 23 12ZM4.46654 9.26646C4.46525 9.26646 4.4642 9.26742 4.46418 9.26861L4.41003 13.3943C4.40997 13.3991 4.4141 13.4029 4.41925 13.4029L8.72269 13.414C8.72784 13.414 8.73207 13.4102 8.73211 13.4054C8.7322 13.4007 8.73642 13.3968 8.74157 13.3968L15.2248 13.4135C15.3523 13.4138 15.4543 13.5098 15.4527 13.6279L15.4399 14.6061C15.4384 14.7242 15.3338 14.8197 15.2064 14.8193L6.12837 14.7958C6.00094 14.7955 5.8964 14.891 5.89486 15.0091L5.86525 17.2678C5.86371 17.3859 5.96574 17.4819 6.09312 17.4823L12.9448 17.5C13.0158 17.5002 13.0832 17.4701 13.1277 17.4184L14.9048 15.3495C15.1144 15.1055 15.4008 14.9337 15.7181 14.8545C15.7366 14.8499 15.7556 14.8479 15.7747 14.8479L19.5281 14.8577C19.6556 14.858 19.7601 14.7625 19.7616 14.6444L19.81 10.9526C19.8116 10.8345 19.7095 10.7385 19.5821 10.7382L8.99818 10.7109C8.8708 10.7106 8.76876 10.6146 8.7703 10.4965L8.78341 9.49583C8.785 9.37773 8.88954 9.28225 9.01692 9.28256L17.6799 9.30487C17.8073 9.30522 17.9119 9.2097 17.9134 9.0916L17.9444 6.73087C17.946 6.61277 17.8439 6.51676 17.7165 6.51641L11.3399 6.5C11.2947 6.49987 11.2524 6.52033 11.2233 6.55262L9.35128 8.73533C9.0805 9.05108 8.68107 9.24622 8.25247 9.27622L4.46654 9.26646Z" fill="white"/>
</svg>
