<svg width="24" height="24" viewBox="0 0 24 24" fill="none" xmlns="http://www.w3.org/2000/svg">
<path d="M11.7139 13.3815C11.7128 13.5268 11.6687 13.6684 11.5872 13.7886C11.5057 13.9088 11.3905 14.0022 11.256 14.0571C11.1215 14.1119 10.9738 14.1256 10.8315 14.0966C10.6892 14.0676 10.5587 13.9971 10.4564 13.8941C10.3541 13.791 10.2846 13.6599 10.2567 13.5174C10.2287 13.3749 10.2436 13.2273 10.2994 13.0932C10.3553 12.9591 10.4495 12.8446 10.5704 12.764C10.6912 12.6835 10.8332 12.6405 10.9784 12.6405H11.7139V10.6709H10.9784C10.4415 10.667 9.91542 10.8225 9.46703 11.1179C9.01864 11.4134 8.66808 11.8353 8.45983 12.3302C8.25159 12.8252 8.19503 13.3708 8.29734 13.8979C8.39964 14.425 8.6562 14.9099 9.03447 15.291C9.41274 15.6721 9.89568 15.9323 10.422 16.0385C10.9484 16.1447 11.4944 16.0922 11.9909 15.8877C12.4873 15.6831 12.9119 15.3357 13.2106 14.8895C13.5094 14.4434 13.6689 13.9185 13.6689 13.3815V12.6405H11.7139V13.3815Z" fill="white"/>
<path d="M15.6082 10.671H13.6688V12.626H15.6082V10.671Z" fill="white"/>
<path d="M14.4468 9.67843H16.6734V7.70779H14.4468C13.7271 7.70779 13.0368 7.99331 12.5273 8.5017C12.0179 9.01008 11.731 9.6998 11.7295 10.4195V10.671H13.7035V10.4195C13.7049 10.223 13.7838 10.035 13.9229 9.89632C14.0621 9.75759 14.2503 9.6793 14.4468 9.67843Z" fill="white"/>
<path d="M11.9989 1C9.82334 1.00022 7.69671 1.64555 5.88792 2.85438C4.07913 4.06321 2.6694 5.78125 1.83701 7.79126C1.00462 9.80126 0.78694 12.013 1.2115 14.1467C1.63607 16.2804 2.6838 18.2403 4.22222 19.7786C5.76065 21.3168 7.72066 22.3644 9.85442 22.7887C11.9882 23.2131 14.1999 22.9952 16.2098 22.1626C18.2197 21.33 19.9376 19.9201 21.1462 18.1112C22.3549 16.3022 23 14.1755 23 12C22.9965 9.08351 21.8362 6.28751 19.7739 4.22535C17.7115 2.16319 14.9154 1.00325 11.9989 1ZM18.7838 17.7666C20.1597 16.1517 20.9129 14.0981 20.9074 11.9765C20.9019 9.85498 20.1379 7.80531 18.7536 6.19764L19.8322 5.11564C21.5028 7.01067 22.4273 9.44847 22.4334 11.9747C22.4396 14.5009 21.527 16.9432 19.8658 18.8464L18.7838 17.7666ZM18.8285 4.11747L17.7476 5.20059C16.1357 3.83361 14.0895 3.08579 11.976 3.09132C9.86254 3.09685 7.82022 3.85537 6.21553 5.23077L5.13353 4.151C7.02663 2.49107 9.45694 1.57309 11.9747 1.56692C14.4925 1.56076 16.9273 2.46683 18.8285 4.11747ZM4.13312 5.15364L5.21401 6.23229C4.68571 6.85051 4.24491 7.53842 3.90398 8.2767C3.86038 8.37059 3.81903 8.46672 3.77879 8.56285L5.33584 8.57067C6.10523 7.07683 7.35464 5.88514 8.88317 5.18721C10.4117 4.48929 12.1305 4.32569 13.7633 4.72272C15.396 5.11975 16.8478 6.05435 17.8852 7.37622C18.9226 8.69809 19.4853 10.3304 19.4828 12.0108C19.4803 13.6911 18.9128 15.3218 17.8716 16.6406C16.8303 17.9594 15.3758 18.8897 13.7419 19.2819C12.108 19.6742 10.3896 19.5055 8.86314 18.8031C7.33667 18.1007 6.09077 16.9053 5.32578 15.4092H3.76873C4.12576 16.265 4.61331 17.0602 5.21401 17.7666L4.13424 18.8486C2.47852 16.9516 1.56621 14.519 1.56621 12.0011C1.56621 9.48322 2.47852 7.05059 4.13424 5.15364H4.13312ZM5.13912 19.8512L6.21665 18.7703C6.33849 18.8754 6.46368 18.9783 6.5911 19.0755C8.20998 20.3151 10.2055 20.9611 12.2437 20.9053C14.2819 20.8496 16.2391 20.0955 17.7878 18.7692L18.8698 19.849C16.9704 21.5142 14.5305 22.4323 12.0045 22.4323C9.47846 22.4323 7.03854 21.5142 5.13912 19.849V19.8512Z" fill="white"/>
<path d="M3.51501 13.9148L2.55261 10.1143H3.40324L3.91741 12.8786L4.54336 10.111H5.37052L5.97188 12.9255L6.50058 10.111H7.33668L6.3631 13.9114H5.62425L4.94017 11.1226L4.2628 13.9114L3.51501 13.9148Z" fill="white"/>
</svg>
