<svg width="24" height="24" viewBox="0 0 24 24" fill="none" xmlns="http://www.w3.org/2000/svg">
<path d="M22.0891 7.70175C21.5286 6.40353 20.758 5.21053 19.742 4.19297C18.7261 3.17542 17.5701 2.40349 16.2389 1.8421C14.9076 1.28072 13.4714 1 11.965 1C10.4936 1 9.05733 1.28072 7.69108 1.87719C6.3949 2.43858 5.20382 3.21051 4.18791 4.22806C3.17195 5.24562 2.40129 6.40353 1.84079 7.73684C1.28028 9.07015 1 10.5088 1 11.9825C1 13.4561 1.28028 14.8948 1.87582 16.2632C2.43632 17.5614 3.20698 18.7544 4.22294 19.7719C5.23885 20.7895 6.3949 21.5614 7.72611 22.1228C9.09237 22.6842 10.5286 23 12 23C13.4714 23 14.9076 22.7193 16.2739 22.1228C17.5701 21.5614 18.7612 20.7895 19.7771 19.7719C20.793 18.7544 21.5637 17.5965 22.1242 16.2632C22.6847 14.8948 23 13.4561 23 11.9825C22.965 10.5088 22.6847 9.07015 22.0891 7.70175ZM8.32166 10.9649C8.77706 9.21051 10.3886 7.91229 12.2803 7.91229H19.9172C20.4076 8.85966 20.7229 9.87722 20.8281 10.9649H8.32166ZM20.8281 13.0351C20.6879 14.1228 20.4076 15.1403 19.9172 16.0877H12.2803C10.3886 16.0877 8.77706 14.7895 8.32166 13.0351H20.8281ZM5.65922 5.66664C7.34079 3.98243 9.58281 3.03511 11.965 3.03511C14.3471 3.03511 16.5891 3.9474 18.2707 5.66664C18.3057 5.70173 18.3758 5.77191 18.4109 5.807H12.2803C10.6337 5.807 9.09237 6.43862 7.93632 7.59648C7.02547 8.50877 6.42993 9.66668 6.21972 10.9298H3.13697C3.34713 8.96493 4.22295 7.14037 5.65922 5.66664ZM11.965 20.9298C9.58281 20.9298 7.34079 20.0176 5.65922 18.2983C4.22295 16.8596 3.34713 15.0351 3.13697 13.0351H6.25475C6.46496 14.2982 7.06051 15.4561 7.97136 16.3684C9.12741 17.5263 10.6688 18.1579 12.3153 18.1579H18.4809C18.4458 18.2281 18.3758 18.2632 18.3408 18.2983C16.5891 19.9825 14.3471 20.9298 11.965 20.9298Z" fill="white"/>
</svg>
